<svg xmlns="http://www.w3.org/2000/svg" viewBox="0 0 1132.7 141.42"><defs><style>.cls-1{fill:#ffcb13;}.cls-2{fill:#13a64a;}.cls-3{fill:#fff;}</style></defs><g id="Layer_2" data-name="Layer 2"><g id="Layer_3" data-name="Layer 3"><rect class="cls-1" x="489.43" width="643.28" height="141.42" rx="11.8"/><path class="cls-2" d="M66.52,66.11h7.13c4.34,0,6.76,2.43,6.76,6.76V97.64c0,16-7.5,20.88-32,20.88C16,118.52,0,99.7,0,69.42,0,31.35,25.28,12.9,69.61,23c4,1,6,3.53,6,7.57v4.48c0,4.71-2.87,6.84-7.72,6C33,34.73,21.24,43.77,21.24,69.42c0,19.7,7.5,30.21,25.29,30.21,11.17,0,13.23-1.25,13.23-7.06V72.87C59.76,68.54,62.18,66.11,66.52,66.11Z"/><path class="cls-2" d="M168.24,117.2h-9.7a8.14,8.14,0,0,1-7.94-4.86L132.74,77.87H119.07v32.56c0,4.34-2.43,6.77-6.76,6.77H105.1c-4.33,0-6.76-2.43-6.76-6.77V42.74c0-15.29,7-21.1,22.79-21.1h12.2c26,0,41.45,6.47,41.45,28.6,0,15.14-7.2,22.71-21.17,25.87l19.26,33C175.59,113.81,173.61,117.2,168.24,117.2ZM135.61,61.77c14,0,18.45-3.82,18.45-11.68s-4.41-11.54-18.45-11.54H125.1c-5.08,0-6,2.64-6,6.1V61.77Z"/><path class="cls-2" d="M192.93,96.1V42.74c0-15.29,7-21.1,22.79-21.1h39.76c4.34,0,6.77,2.43,6.77,6.77v4.11c0,4.34-2.43,6.76-6.77,6.76H220.79c-6.1,0-7.13,2.36-7.13,6.1v15h34.69c4.34,0,6.77,2.42,6.77,6.76v3.75c0,4.34-2.43,6.76-6.77,6.76H213.66v15.8c0,3.75,1,6.1,7.13,6.1h37.34c4.34,0,6.76,2.43,6.76,6.77v4.11c0,4.34-2.42,6.77-6.76,6.77H215.72C199.92,117.2,192.93,111.39,192.93,96.1Z"/><path class="cls-2" d="M280.91,96.1V42.74c0-15.29,7-21.1,22.79-21.1h39.76c4.34,0,6.77,2.43,6.77,6.77v4.11c0,4.34-2.43,6.76-6.77,6.76H308.77c-6.1,0-7.13,2.36-7.13,6.1v15h34.69c4.34,0,6.77,2.42,6.77,6.76v3.75c0,4.34-2.43,6.76-6.77,6.76H301.64v15.8c0,3.75,1,6.1,7.13,6.1h37.34c4.34,0,6.76,2.43,6.76,6.77v4.11c0,4.34-2.42,6.77-6.76,6.77H303.7C287.9,117.2,280.91,111.39,280.91,96.1Z"/><path class="cls-2" d="M368.89,110.43V40.09c0-14.62,4.63-18.45,17.13-18.45,9,0,14.62,2,21.24,16.32l23.59,53c.74,1.69,1.33,2.2,2.21,2.2,1.25,0,1.62-.88,1.62-2.65l-.3-62.1c0-4.34,2.43-6.77,6.76-6.77h6.62c4.34,0,6.76,2.43,6.76,6.77V98.75c0,14.62-4.63,18.45-17.12,18.45-9,0-14.63-2-21.25-16.32l-23.59-53c-.74-1.69-1.32-2.2-2.21-2.2-1.25,0-1.61.88-1.61,2.64l.29,62.11c0,4.34-2.42,6.77-6.76,6.77h-6.62C371.32,117.2,368.89,114.77,368.89,110.43Z"/><path class="cls-3" d="M518.46,107.86v-2.79c0-4.71,2.79-6.84,7.5-6,18.74,3.46,40,3.46,40-8.52,0-4.41-2.65-7.79-12.94-12l-9.18-4c-18.23-7.87-24.77-16.1-24.77-28.23,0-24.25,26.46-30.35,56.3-23.44,4,1,5.88,3.45,5.88,7.49v3c0,4.63-2.79,6.91-7.5,6.1-17.64-2.94-34-3.16-34,6.47,0,4.26,2.79,7.71,12.13,11.46l8.52,3.6c18.45,7.79,26.32,15.73,26.32,29.48,0,27.19-32,32.19-62.4,24.77C520.3,114.4,518.46,111.83,518.46,107.86Z"/><path class="cls-3" d="M687.88,28.41V78.17c0,27.26-11.47,40.35-42.78,40.35s-42.78-13.09-42.78-40.35V28.41c0-4.34,2.43-6.77,6.76-6.77h7.21c4.33,0,6.76,2.43,6.76,6.77V79.27c0,14.18,6.54,20.58,22.05,20.58s22-6.4,22-20.58V28.41c0-4.34,2.42-6.77,6.76-6.77h7.2C685.45,21.64,687.88,24.07,687.88,28.41Z"/><path class="cls-3" d="M708.45,110.43V40.09c0-14.62,4.63-18.45,17.13-18.45,9,0,14.62,2,21.24,16.32l23.59,53c.74,1.69,1.33,2.2,2.21,2.2,1.25,0,1.62-.88,1.62-2.65l-.3-62.1c0-4.34,2.43-6.77,6.76-6.77h6.62c4.34,0,6.76,2.43,6.76,6.77V98.75c0,14.62-4.63,18.45-17.12,18.45-9,0-14.63-2-21.25-16.32l-23.59-53c-.74-1.69-1.32-2.2-2.21-2.2-1.25,0-1.61.88-1.61,2.64l.29,62.11c0,4.34-2.42,6.77-6.76,6.77h-6.62C710.88,117.2,708.45,114.77,708.45,110.43Z"/><path class="cls-3" d="M884.56,117.2h-9.7a8.14,8.14,0,0,1-7.94-4.86L849.06,77.87H835.39v32.56c0,4.34-2.43,6.77-6.77,6.77h-7.2c-4.34,0-6.76-2.43-6.76-6.77V42.74c0-15.29,7-21.1,22.78-21.1h12.21c26,0,41.45,6.47,41.45,28.6,0,15.14-7.2,22.71-21.17,25.87l19.26,33C891.91,113.81,889.92,117.2,884.56,117.2ZM851.92,61.77c14,0,18.45-3.82,18.45-11.68S866,38.55,851.92,38.55H841.41c-5.07,0-6,2.64-6,6.1V61.77Z"/><path class="cls-3" d="M911.6,110.43v-82c0-4.34,2.43-6.77,6.77-6.77h7.42c4.34,0,6.76,2.43,6.76,6.77v82c0,4.34-2.42,6.77-6.76,6.77h-7.42C914,117.2,911.6,114.77,911.6,110.43Z"/><path class="cls-3" d="M950.63,107.86v-2.79c0-4.71,2.8-6.84,7.5-6,18.74,3.46,40,3.46,40-8.52,0-4.41-2.64-7.79-12.93-12l-9.19-4c-18.23-7.87-24.77-16.1-24.77-28.23,0-24.25,26.46-30.35,56.3-23.44,4,1,5.88,3.45,5.88,7.49v3c0,4.63-2.79,6.91-7.5,6.1-17.63-2.94-34-3.16-34,6.47,0,4.26,2.8,7.71,12.13,11.46l8.53,3.6c18.45,7.79,26.31,15.73,26.31,29.48,0,27.19-32,32.19-62.4,24.77C952.47,114.4,950.63,111.83,950.63,107.86Z"/><path class="cls-3" d="M1034.49,96.1V42.74c0-15.29,7-21.1,22.79-21.1H1097c4.34,0,6.77,2.43,6.77,6.77v4.11c0,4.34-2.43,6.76-6.77,6.76h-34.69c-6.1,0-7.13,2.36-7.13,6.1v15h34.69c4.34,0,6.77,2.42,6.77,6.76v3.75c0,4.34-2.43,6.76-6.77,6.76h-34.69v15.8c0,3.75,1,6.1,7.13,6.1h37.34c4.34,0,6.76,2.43,6.76,6.77v4.11c0,4.34-2.42,6.77-6.76,6.77h-42.41C1041.48,117.2,1034.49,111.39,1034.49,96.1Z"/></g></g></svg>