<svg id="Layer_1" data-name="Layer 1" xmlns="http://www.w3.org/2000/svg" viewBox="0 0 673.86594 448.08557"><defs><style>.cls-1{fill:#76bc44;}.cls-2{fill:#ffcc0b;}.cls-3{fill:#fff;}.cls-4{fill:#231f20;}</style></defs><g id="Leaf"><path class="cls-1" d="M581.59369,586.8642c80.75966-42.121,174.23786-59.39816,264.79844-49.85957,1.61475.17973,11.996,1.5203,13.87991,1.74427,6.30333.75041,13.04467,2.04514,19.333,3.01506,29.22434,5.16713,58.606,13.50911,87.13368,21.0623,24.99121,6.70829,49.62725,12.09857,75.10147,15.35141,56.882,7.10461,114.43983,4.60369,171.1284-4.15613,14.0733-2.16662,28.17681-4.76057,42.491-7.3596a327.98144,327.98144,0,0,1-38.64421,20.30836c-53.98837,24.20075-113.64456,35.84274-172.83135,34.53212a385.27975,385.27975,0,0,1-56.09449-5.551C970.20912,613.01037,951.4722,608.5,934.109,604.11863c-21.41288-5.51143-44.54794-11.584-66.09475-16.00529-18.25674-3.72318-37.16907-6.8982-55.6821-8.97246-51.86128-6.02429-103.78678-5.4577-156.039-.75834-24.98617,2.03553-49.73878,5.52983-74.69949,8.48166Z" transform="translate(-581.59369 -292.98181)"/><path class="cls-1" d="M695.31357,532.16559c76.74858-29.43143,162.60368-33.90976,242.334-14.064,30.60671,7.24381,61.69666,15.88608,92.50233,22.01657a790.2142,790.2142,0,0,0,93.47331,12.942c25.705,2.03907,51.831,2.80022,77.62228,2.69615,14.36083-.11781,29.03694-.50473,43.43094-.96984-5.69479,1.15422-11.40055,2.2963-17.12451,3.30026A583.2416,583.2416,0,0,1,1070.4228,563.601c-34.84571-3.42063-69.61473-10.55452-103.46814-19.22922-30.243-7.81766-61.17371-15.99521-92.12841-20.20491-59.72784-7.98851-120.53992-3.94847-179.51268,7.99869Z" transform="translate(-581.59369 -292.98181)"/></g><path class="cls-2" d="M774.76147,489.58563c-.001-.39258.09675-.48529.4842-.47839,1.42669.02527,2.85424.01782,4.28125.00067.29864-.0036.37964.09253.37536.37421-.01349.8844-.00726,1.769-.00732,2.65362q-.00037,6.54886-.00849,13.09784a410.9169,410.9169,0,0,1,92.46277-2.83124A85.24341,85.24341,0,1,1,1030.72388,535.228a793.90564,793.90564,0,0,0,86.14355,12.26111q-.01446-6.44523-.0083-12.89063c-.00012-.83295.00586-1.66608-.00684-2.49884-.00415-.26526.07215-.35583.3534-.35242,1.34375.01612,2.68811.0232,4.03161-.00067.36475-.00647.45679.08087.45594.45056-.01282,5.23273-.00525,10.46552-.01978,15.69818.64954.0514,1.30042.11518,1.94983.1648,18.49353,1.467,37.2041,2.264,55.852,2.56177.0614-.038.0918-.10926.09131-.25116q-.015-5.14654-.00671-10.29309c0-.60834.00427-1.2168-.005-1.825-.00293-.19372.05274-.25988.25818-.25738.98132.01178,1.96326.01691,2.94446-.00049.26648-.0047.33374.05908.333.329-.00977,3.98932-.00245,7.9787-.015,11.968-.001.31323.08.38013.38025.37366.96387-.02076,1.92847-.01374,2.89282-.006a1.66062,1.66062,0,0,1,.37842.05054q7.27076.06584,14.51843.04627c7.59632-.06232,15.28015-.20295,22.9646-.38764.15467-3.44006.255-6.89313.255-10.36865,0-136.42438-118.405-247.01819-264.46509-247.01819-141.36353,0-256.78186,103.60571-264.06042,233.95093a393.51969,393.51969,0,0,1,78.84252-20.92792C774.7677,500.5318,774.77478,495.05872,774.76147,489.58563Zm363.478,40.819q-7.59045-.0151-15.18115-.00689-11.13465.00009-22.26929,0c-1.55456,0-3.10913-.00617-4.66357.00592-.26587.00207-.35181-.05994-.34741-.33942.0177-1.1117.02734-2.22431-.00074-3.33557-.0094-.37226.1211-.434.44995-.43341q7.9878.01272,15.97547.00665,2.52355.00009,5.04712.00012,10.50788.00018,21.016-.00708c.33154-.00043.44458.06189.4353.422-.02783,1.0838-.033,2.16949.0022,3.25287C1138.71619,530.36658,1138.57642,530.40521,1138.2395,530.4046Zm-9.67309-17.886a1.7702,1.7702,0,0,1-1.86353.95666c-1.94141-.06757-3.88672-.02124-5.85962-.02124a2.55749,2.55749,0,0,1,.49561-.80914c.62329-.93262,1.26074-1.85578,1.89087-2.78388.09423-.13867.17028-.26367.38086-.26294,2.27661.00769,4.55346.00483,6.92456.00483C1129.84045,510.61713,1129.12915,511.52576,1128.56641,512.51862Zm3.46069-2.67707c.0603-.08764.10266-.20129.229-.22516a.06522.06522,0,0,1,.11133-.00329l.135.00085q1.97681-.06912,3.95337-.00055l.71533-.00225a1.304,1.304,0,0,1,.60742.02465l.13672-.02978a.07923.07923,0,0,1,.12891.0047q.56507.00045,1.13.00085a.07748.07748,0,0,1,.121-.00079.05887.05887,0,0,1,.06677.00592c.20959.06085.05688.11822-.00171.17645q-.665,1.00178-1.33,2.00354-.16644.254-.33264.508a.36833.36833,0,0,1-.01159.04,1.82424,1.82424,0,0,1-2.087,1.1372c-1.98047-.09253-3.96838-.02722-5.96668-.02722-.03076-.19934.13038-.29767.21558-.42377Q1130.93042,511.43137,1132.0271,509.84155Zm-11.01758,4.9372c1.9563.06213,3.916.0199,5.95386.0199-.40283.58477-.77612,1.12451-1.14722,1.666-.43847.63995-.8811,1.2774-1.30884,1.92456a.57232.57232,0,0,1-.54419.28241c-2.16674-.00964-4.33349-.00421-6.50024-.004-.06457,0-.12915-.0075-.24536-.01471.68628-1.004,1.40747-1.93408,1.98559-2.94592A1.72579,1.72579,0,0,1,1121.00952,514.77875Zm2.34717,5.26562c-.45.6612-.85083,1.25507-1.25659,1.84546-.63648.92572-1.27722,1.84839-1.9137,2.774-.10388.151-.19177.27759-.41907.27661-2.24755-.00964-4.49536-.00586-6.82934-.00586.39624-.59137.75757-1.13818,1.12671-1.67956q1.00745-1.47749,2.02234-2.94983c.09228-.13452.16247-.267.37683-.26624C1118.72754,520.04767,1120.991,520.04437,1123.35669,520.04437Zm1.56445.13935a.2936.2936,0,0,1,.27527-.1402c2.42688.00293,4.85364.0022,7.35266.0022-.68091,1.02789-1.32654,2.0047-1.97424,2.98022-.37561.56573-.75671,1.12793-1.13037,1.69489a.38591.38591,0,0,1-.353.22753c-2.45032-.00677-4.90088-.00451-7.44495-.00451C1122.77417,523.30627,1123.84973,521.7464,1124.92114,520.18372Zm1.22974-1.51764a.72252.72252,0,0,1-.15308-.04523c.43286-.63123.852-1.24542,1.27429-1.85754q.60223-.87315,1.20948-1.74268c.07727-.111.13464-.22412.31262-.22369,2.38892.00616,4.77759.00415,7.24524.00415-.31165.473-.58765.89618-.86792,1.31646-.51477.7721-1.036,1.53986-1.545,2.3158a.4217.4217,0,0,1-.39062.24036C1130.87427,518.66675,1128.51257,518.6684,1126.15088,518.66608Zm9.81726-1.28974c.51477-.77417,1.035-1.54467,1.546-2.32135a.46416.46416,0,0,1,.42883-.25866c2.55762.0075,5.11524.00445,7.673.00549a.51632.51632,0,0,1,.11657.04535c-.76062,1.22925-1.50305,2.43017-2.24719,3.63006a.30731.30731,0,0,1-.28735.19123c-2.6648-.00727-5.32947-.00519-8.0752-.00519C1135.42944,518.19611,1135.69653,517.78473,1135.96814,517.37634Zm6.73816-3.93091q-.59126.00055-1.18262.001h-2.93738c.52332-.77514,1.01868-1.50885,1.514-2.24255.30176-.46063.60571-.91986.90381-1.38281a.42373.42373,0,0,1,.40942-.21967c.42749.01758.85572.01672,1.2837.02332,1.0017-.04029,2.00341-.034,3.00537-.00678l.41674.01154h2.79883c.03247.12579-.06433.21588-.124.31225-.671,1.08258-1.34753,2.16175-2.0166,3.24561-.09839.1596-.18213.27875-.40723.27575C1145.14917,513.44708,1143.92773,513.44946,1142.7063,513.44543Zm2.495-5.24652-.26233-.00122-.32836-.00146h-2.53052c.3324-.49225.6416-.95008.9508-1.4079l.33435-.49963c.39637-.60187.79493-1.20221,1.18714-1.80677a.36262.36262,0,0,1,.33288-.19934c2.45545.00385,4.91089.00269,7.42725.00269-.27905.45245-.52942.861-.78235,1.26782-.49768.80048-1.00036,1.598-1.4928,2.40161a.43549.43549,0,0,1-.41772.26245C1148.147,508.20215,1146.67407,508.20312,1145.20129,508.19891Zm-3.50183-1.90985-.24316.33393c-.30615.476-.616.9497-.91577,1.42956a.30817.30817,0,0,1-.30518.16107c-.34619-.01111-.69263-.011-1.03894-.01538q-.25433-.00274-.50867-.00543h-5.51049c.32617-.48254.63574-.947.9519-1.4071.51733-.75306,1.04248-1.50092,1.55615-2.25654a.47038.47038,0,0,1,.43408-.24847c2.248.00824,4.49622.00513,6.74439.00623a1.17736,1.17736,0,0,1,.16309.0307C1142.57324,504.99121,1142.13647,505.64014,1141.69946,506.28906Zm-9.40844.80829a2.0315,2.0315,0,0,1-2.192,1.14026c-1.68982-.097-3.38916-.02643-5.08447-.02649-.18933-.00006-.37879,0-.64588,0,.59644-.87866,1.15235-1.6994,1.71045-2.51855.24219-.35541.509-.6958.72656-1.06543a.62709.62709,0,0,1,.62622-.34766c2.22266.01361,4.44532.00732,6.76685.00732C1133.52307,505.2666,1132.81909,506.13379,1132.291,507.09735Zm-8.26661-.80231c-.39184.57166-.79174,1.1377-1.18237,1.71015-.08093.11841-.14587.21051-.31885.21-2.16455-.00678-4.32922-.0044-6.58056-.0044.38086-.54748.72216-1.04284,1.06848-1.5346.50256-.71344,1.0116-1.4223,1.51135-2.13764a.47354.47354,0,0,1,.42932-.25744c2.06995.009,4.13989.00445,6.20984.0047.05029,0,.10034.01.21289.02191C1124.90479,504.99957,1124.46729,505.64911,1124.02441,506.295Zm-2.41723,3.30927c.02221.00006.04468.02515.10156.05945-.22351.33038-.44434.65973-.66833.987-.58729.85864-1.17811,1.715-1.76209,2.5758a.41715.41715,0,0,1-.38721.23407c-2.19458-.00976-4.38916-.0061-6.667-.0061.90039-1.27527,1.75574-2.48444,2.60681-3.69666a.38363.38363,0,0,1,.35547-.16058Q1118.39679,509.60187,1121.60718,509.60431Zm-3.5603,5.19684c.02319,0,.04626.0191.116.0498-.82617,1.20636-1.63232,2.38422-2.43933,3.56165-.09241.13489-.16809.259-.38122.25812-2.23487-.00977-4.47-.006-6.80323-.006.20142-.28528.36255-.51367.52368-.74212q1.00726-1.4286,2.01368-2.85779a.51339.51339,0,0,1,.46508-.27063C1113.71,514.80548,1115.87842,514.80017,1118.04688,514.80115Zm-3.43116,5.24286c-1.11694,1.62994-2.18359,3.18359-3.24487,4.741a.33111.33111,0,0,1-.313.15277c-2.28906-.00232-4.57812-.00164-6.95532-.00164.344-.491.64819-.92835.95569-1.36322q1.16527-1.64787,2.33166-3.29493c.08936-.12658.15869-.23889.35059-.23834C1110.00415,520.04645,1112.26782,520.044,1114.61572,520.044Zm24.57862,4.90149c-2.71827-.00782-5.43665-.005-8.25525-.005.76306-1.14728,1.47473-2.2193,2.18884-3.28979.31506-.47248.641-.93787.949-1.41492a.34827.34827,0,0,1,.3274-.19653q3.95837.00942,7.917.01056a.85071.85071,0,0,1,.15295.03753c-.55554.90033-1.0968,1.7804-1.641,2.65882-.3938.6358-.79272,1.26837-1.18554,1.90484A.48994.48994,0,0,1,1139.19434,524.9455ZM1155.6,505.18469q-3.89667,6.29279-7.79041,12.58734-3.7185,6.01182-7.43433,12.02521c-.07775.12592-.1604.24884-.24072.37317l-.07275-.01788a15.895,15.895,0,0,0-.01111-1.81653,6.44918,6.44918,0,0,1,1.21081-4.38587c3.36524-5.25183,6.62378-10.572,9.92139-15.86724q2.08813-3.35322,4.1731-6.7085c.10766-.17285.22461-.33984.408-.61646,0,.66559-.00049,1.21088.00024,1.75611.00073.69482-.00281,1.38971.00708,2.08441A1.04725,1.04725,0,0,1,1155.6,505.18469Zm39.57507,31.8299q-5.5437-.011-11.0874-.005-8.13226.00009-16.26441.00006c-1.13537,0-2.27075-.00457-3.406.00428-.1941.00152-.257-.04377-.25367-.24787.01294-.81195.0199-1.62457-.00061-2.43615-.007-.27186.0885-.3169.32862-.31653q5.83392.00924,11.6676.00482,1.84314.00018,3.68616.00012,7.67449.00009,15.349-.00519c.24218-.0003.3247.04523.31787.30823-.02027.79157-.02417,1.58447.00158,2.37573C1195.52319,536.98682,1195.42114,537.01508,1195.17505,537.01459Zm-.39575-13.21918a.26269.26269,0,0,1-.00843.02924,1.33245,1.33245,0,0,1-1.52429.8305c-1.44641-.06756-2.89819-.0199-4.35766-.0199-.02259-.14556.09509-.21734.15747-.30944q.79046-1.16822,1.59155-2.32935c.04394-.064.07495-.147.16724-.16443a.0476.0476,0,0,1,.08129-.00244l.09864.00067q1.4436-.05053,2.8872-.00043l.52247-.00164a.95316.95316,0,0,1,.4436.018l.1-.02173a.05781.05781,0,0,1,.09412.00342l.8252.00061a.05658.05658,0,0,1,.08837-.00055.043.043,0,0,1,.04883.00434c.15308.04443.04151.0863-.00122.12884q-.48578.73159-.97143,1.46332v-.00006Q1194.90063,523.61,1194.7793,523.79541Zm-6.66895.15625a1.29275,1.29275,0,0,1-1.361.69867c-1.41785-.04932-2.83875-.0155-4.27966-.0155a1.86625,1.86625,0,0,1,.36206-.591c.4552-.68115.92077-1.35534,1.381-2.0332.06872-.10126.12439-.19256.27807-.192,1.66285.00562,3.32569.00348,5.05726.00348C1189.04089,522.56287,1188.52136,523.2265,1188.11035,523.95166Zm-5.51916,1.6507c1.42883.04535,2.8601.01452,4.34851.01452-.29431.42707-.567.82129-.83789,1.21668-.32032.4674-.64356.933-.95594,1.40564a.41817.41817,0,0,1-.39758.20623c-1.5824-.007-3.16492-.00305-4.74744-.00286-.04711,0-.09423-.0055-.17907-.01075.50122-.73333,1.02795-1.41259,1.45019-2.15155A1.26034,1.26034,0,0,1,1182.59119,525.60236Zm1.71435,3.8457c-.32873.48291-.62146.91663-.91784,1.34784-.46485.67608-.93287,1.35-1.39771,2.026-.07581.11029-.14014.20276-.30591.202-1.6416-.007-3.2832-.00428-4.988-.00428.28956-.43188.55347-.83123.823-1.22668q.7359-1.079,1.47705-2.15436c.06739-.09827.11866-.19507.27515-.19446C1180.92456,529.45044,1182.57764,529.44806,1184.30554,529.44806Zm1.14246.10181a.21462.21462,0,0,1,.20117-.10242c1.77234.00213,3.5448.00159,5.36987.00159-.49719.75073-.96875,1.46417-1.44189,2.17657-.27429.41321-.55249.82379-.82544,1.23792a.28225.28225,0,0,1-.25781.16619c-1.7898-.005-3.57935-.00329-5.4375-.00329C1183.88,531.83038,1184.66553,530.69116,1185.448,529.54987Zm.89819-1.10846a.5258.5258,0,0,1-.11181-.033c.31616-.461.62231-.90961.93066-1.35669q.43981-.63757.8833-1.27271c.0564-.08105.09839-.16369.22839-.16339,1.74475.00452,3.48938.00305,5.29151.00305-.22766.34546-.4292.65454-.63391.96149-.376.56384-.7566,1.12463-1.1283,1.69128a.30832.30832,0,0,1-.28528.1756C1189.7959,528.44189,1188.071,528.44312,1186.34619,528.44141Zm7.16992-.9419c.376-.56543.75611-1.12817,1.12915-1.69543a.339.339,0,0,1,.31324-.18891c1.86792.00544,3.736.00324,5.604.004a.37675.37675,0,0,1,.08508.03308c-.55554.89777-1.09778,1.77491-1.64123,2.65125a.22442.22442,0,0,1-.21.13965c-1.94605-.00531-3.89234-.00379-5.89759-.00379C1193.1228,528.09814,1193.31787,527.79773,1193.51611,527.49951Zm4.92139-2.871-.86377.00079h-2.14539c.38221-.56616.744-1.102,1.10584-1.63787.22021-.33643.44238-.67182.66016-1.01a.309.309,0,0,1,.29895-.1604c.31213.01281.62487.0122.9375.017.73156-.02941,1.46325-.02484,2.19494-.00494l.30445.00842h2.04406c.02381.09186-.047.15766-.09057.228-.49012.79065-.98426,1.57886-1.47278,2.37042-.072.11658-.13306.20362-.29736.20142C1200.22156,524.62976,1199.32947,524.63147,1198.4375,524.62854Zm1.82214-3.83173-.19152-.00091-.24-.0011H1197.98l.69446-1.02826.24426-.36487c.28943-.43957.58057-.878.86694-1.31958a.265.265,0,0,1,.24317-.14563c1.79321.00287,3.58667.002,5.42444.002-.20386.3305-.3866.62884-.57141.926-.36353.58466-.73047,1.16705-1.09034,1.754a.31791.31791,0,0,1-.30493.19171C1202.41089,520.79913,1201.33521,520.79987,1200.25964,520.79681Zm-2.55749-1.39489-.17774.24389c-.22363.3476-.4497.69361-.66882,1.04407a.225.225,0,0,1-.2229.11762c-.25281-.00812-.50574-.008-.75867-.01124l-.37158-.004h-4.02453c.23815-.35242.46423-.69165.69519-1.02765.37793-.55.76135-1.09619,1.13647-1.64807a.34347.34347,0,0,1,.317-.18146c1.642.006,3.28381.00372,4.9259.00452a.88121.88121,0,0,1,.119.0224C1198.34033,518.454,1198.02124,518.928,1197.70215,519.40192Zm-6.87146.59033a1.48383,1.48383,0,0,1-1.601.83276c-1.23413-.0708-2.47535-.01928-3.71338-.01935h-.4718c.43566-.64172.84167-1.24108,1.24914-1.83941.17688-.25958.37183-.50812.53076-.77814a.45789.45789,0,0,1,.45728-.25391c1.62329.01,3.2467.00538,4.94214.00538C1191.73047,518.65515,1191.21631,519.28851,1190.83069,519.99225Zm-6.03748-.58594c-.28613.41748-.57837.83087-.86377,1.249-.059.08649-.10644.15375-.23278.15338-1.58094-.00494-3.16175-.00323-4.806-.00323.2782-.3999.52735-.76166.7804-1.12079.36707-.52106.73877-1.03882,1.10376-1.56122a.346.346,0,0,1,.3136-.18805c1.51172.0066,3.02356.0033,4.5354.00342.03662.00006.07324.00733.15527.016C1185.436,518.46014,1185.11646,518.93451,1184.79321,519.40631Zm-1.7655,2.41693c.01624,0,.03259.01831.07422.04334-.16333.24133-.32459.48187-.48816.72088-.429.62714-.86035,1.25251-1.287,1.88123a.30458.30458,0,0,1-.28271.171c-1.60279-.00714-3.20569-.00446-4.86927-.00446.65748-.93139,1.28235-1.81451,1.90381-2.69989a.28067.28067,0,0,1,.25965-.11725Q1180.68293,521.82144,1183.02771,521.82324Zm-2.60022,3.79541c.01685,0,.03369.014.08472.03644-.6034.881-1.19226,1.74127-1.78162,2.60126-.0675.09851-.12268.18915-.27844.18847-1.63233-.00714-3.26465-.00439-4.96875-.00439.14709-.20837.26489-.37518.38257-.54205q.73553-1.04334,1.4707-2.08716a.37473.37473,0,0,1,.3396-.19763C1177.26,525.62189,1178.84375,525.618,1180.42749,525.61865Zm-2.506,3.82916c-.8158,1.19037-1.59485,2.32514-2.36987,3.46253a.242.242,0,0,1-.22864.11163c-1.67188-.00177-3.34363-.00128-5.07984-.00128.25135-.35858.47339-.678.698-.9956q.85107-1.20347,1.703-2.40644c.0653-.09247.11584-.1745.256-.17407C1174.55347,529.44958,1176.20679,529.44781,1177.92151,529.44781Zm17.95093,3.57978c-1.98523-.00568-3.97058-.0036-6.02918-.0036.55737-.83789,1.077-1.62085,1.59863-2.40271.23011-.345.468-.68494.693-1.03339a.25462.25462,0,0,1,.23913-.14355q2.89106.00695,5.78223.00775a.61949.61949,0,0,1,.11157.0274c-.40552.65753-.801,1.3003-1.19836,1.94184-.2876.46441-.579.92639-.86585,1.39123A.35794.35794,0,0,1,1195.87244,533.02759Zm11.98181-14.43225q-2.84583,4.59594-5.6897,9.19311-2.71582,4.39079-5.42956,8.78259c-.05677.092-.11719.18177-.17591.27253l-.0531-.01306a11.60987,11.60987,0,0,0-.00818-1.32666,4.71054,4.71054,0,0,1,.88428-3.20319c2.45776-3.83569,4.83777-7.72125,7.24609-11.58862q1.52527-2.449,3.04786-4.89954c.07861-.12622.16406-.24823.298-.45026,0,.48615-.00037.8844.00012,1.2826.00061.50744-.002,1.015.00525,1.52234A.7655.7655,0,0,1,1207.85425,518.59534Zm-5.31763-4.65161a.36005.36005,0,0,1,.34009-.19489c1.63208.007,3.26416.005,4.89612.009.07422.00019.17981-.045.21911.04517.03467.07989-.05078.1466-.09179.21283q-.85474,1.38162-1.71326,2.761c-.05872.09491-.10193.18348-.24451.18311-1.78271-.00452-3.56543-.00293-5.40161-.00293.35718-.53772.69141-1.0401,1.0249-1.54279C1201.89038,514.9248,1202.21851,514.43744,1202.53662,513.94373Zm-6.02466-.18848q2.35876-.00065,4.71753-.001c.05725.00006.13782.00043.167.03491.059.06958-.02587.13111-.05981.18213-.626.94385-1.25781,1.884-1.88574,2.8266a.28428.28428,0,0,1-.26013.1637c-1.67249-.005-3.34485-.0033-5.08118-.0033.73071-1.06439,1.42407-2.07135,2.11267-3.08172A.30108.30108,0,0,1,1196.512,513.75525Zm-6.77466.17535a.31045.31045,0,0,1,.28406-.17962c1.64417.00958,3.28833.0072,4.9325.00909a.77323.77323,0,0,1,.12036.02588c-.2876.42487-.56055.83362-.83936,1.23834-.4021.58386-.80981,1.16388-1.21142,1.74805-.07032.10235-.12647.18994-.2782.18945-1.67127-.00531-3.34241-.00335-5.066-.00335.42395-.62549.82373-1.21607,1.22436-1.80591Q1189.31921,514.54068,1189.7373,513.9306Zm-6.008.02509a.3974.3974,0,0,1,.36743-.20392c1.39026.00494,2.78052.00177,4.17065.00439.09717.00019.23975-.00665.28089.04908.06531.08825-.0531.17767-.10742.25757-.61524.90393-1.236,1.80419-1.84656,2.71124a.36058.36058,0,0,1-.34058.1889c-1.50171-.00622-3.00366-.003-4.50537-.00336a.88231.88231,0,0,1-.12134-.02282c.38843-.55091.76416-1.0846,1.14087-1.6175C1183.08887,514.86511,1183.41724,514.41595,1183.72925,513.95569Zm-5.50611-.07642a.29138.29138,0,0,1,.25757-.12726q2.022.00613,4.04431.00861c.01624,0,.03235.01862.08265.04944q-.42371.60315-.84522,1.20337-.61156.86856-1.22351,1.73663c-.07483.1062-.13562.2121-.29993.21149-1.40734-.00525-2.81469-.003-4.2832-.003C1176.73853,515.89606,1177.48169,514.88831,1178.22314,513.87927Zm-3.79858,5.13349c.22241-.301.45-.59845.66748-.903a.35281.35281,0,0,1,.3208-.17395c1.37818.00665,2.75635.00391,4.13465.00464a.91622.91622,0,0,1,.11877.02087c-.54773.7837-1.06689,1.55939-1.63977,2.29779a.62386.62386,0,0,1-.18018.24085.44149.44149,0,0,1-.14416.2348c-.19751.15643-.42615.04584-.63892.06732a4.75234,4.75234,0,0,1-.634-.01587l-.23535.00373-.4928.00818h-2.59485C1173.5647,520.17712,1173.99426,519.59467,1174.42456,519.01276Zm-3.48621,4.71722c.42749-.57727.85682-1.1532,1.28113-1.73273a.361.361,0,0,1,.32349-.17822c.83057.01,1.66113.00842,2.49194.0108.16846,0,.33313.00342.49512.00342.19189,0,.29053.00147.47363.00147.12012,0,.24475-.00586.36988-.00586.16918-.00836.33837-.00739.57019-.0188-.36194.51861-.69068.9942-1.0243,1.46637-.28589.40472-.5791.80426-.86462,1.20917-.05969.08453-.10315.15374-.23132.15325-1.49634-.00573-2.99292-.00366-4.55542-.00366C1170.51233,524.3053,1170.72534,524.01758,1170.93835,523.73Zm-1.73547,2.32178a.86506.86506,0,0,1,.89453-.44165c.38135.03888.769.01336,1.154.01617l.24952-.00226.84765.0011q.278.00375.55628.00763h1.33606c-.445.63135-.86133,1.23706-1.29444,1.83069-.23657.32434-.38574.78668-.73193.93658a3.16847,3.16847,0,0,1-1.17212.04065q-1.63935.00339-3.27881.00275c-.08813,0-.17627-.00995-.30713-.01788C1168.05811,527.61444,1168.65576,526.8504,1169.20288,526.05176Zm-4.6145,6.25421c.64282-.87268,1.28906-1.74286,1.92517-2.62036a.51593.51593,0,0,1,.47327-.243c1.49975.01074,2.99975.00561,4.55932.00561-.8435,1.19-1.65063,2.32862-2.458,3.46686a.21979.21979,0,0,1-.19628.11041c-1.58765-.004-3.17518-.00287-4.80249-.00287A4.75408,4.75408,0,0,1,1164.58838,532.306Zm-16.26953-33.4903a.49322.49322,0,0,1,.46582-.26684c2.23462.00958,4.46924.00683,6.70386.01227.10156.00024.24609-.06165.2998.06182.04761.10944-.06946.20075-.12549.29139q-1.1704,1.89175-2.34582,3.78045c-.08045.13-.13953.25116-.33484.25067-2.44092-.00616-4.88184-.004-7.396-.004.48926-.73627.94666-1.42408,1.40332-2.11237C1147.43433,500.15894,1147.8833,499.49164,1148.31885,498.81567Zm-8.2489-.25811q3.2296-.00083,6.45922-.00129c.0785.00007.18885.00055.22876.04779.08069.09528-.03552.17951-.0819.24933-.85718,1.29242-1.72217,2.57959-2.58191,3.8703a.38941.38941,0,0,1-.35633.22406c-2.28991-.00683-4.57983-.00445-6.95727-.00445,1.00061-1.4574,1.95007-2.83618,2.89282-4.21955A.41241.41241,0,0,1,1140.07,498.55756Zm-9.27588.24011a.425.425,0,0,1,.38891-.24591c2.2511.01312,4.50244.00989,6.75379.01239a1.061,1.061,0,0,1,.16467.03552c-.39392.58173-.76758,1.1413-1.14929,1.6955-.55054.79943-1.10864,1.59362-1.65869,2.39343-.09644.14014-.17322.26007-.38086.2594-2.28833-.00727-4.57642-.00458-6.93665-.00458.58057-.85638,1.12793-1.665,1.67664-2.47272Q1130.22168,499.63308,1130.79407,498.79767Zm-8.22632.03436a.544.544,0,0,1,.50305-.27917c1.90357.00677,3.80713.00238,5.71069.006.13282.00024.32813-.0091.38453.0672.08923.12085-.07276.24328-.14722.35266-.84229,1.23767-1.69214,2.47034-2.52832,3.71228a.49359.49359,0,0,1-.46631.2586c-2.05615-.00848-4.11255-.00408-6.16895-.00457a1.20507,1.20507,0,0,1-.166-.03125c.532-.75434,1.04626-1.48505,1.562-2.21466C1121.69092,500.07721,1122.1405,499.46222,1122.56775,498.832Zm-7.53906-.10461a.39879.39879,0,0,1,.35266-.17426q2.76855.00834,5.5376.01172c.02221.00006.04443.02557.113.06775q-.57989.8259-1.15722,1.6477-.83716,1.18928-1.6753,2.37781c-.10229.14545-.18579.29041-.41064.28955-1.92688-.00714-3.85388-.00409-5.86463-.00409C1112.996,501.48877,1114.01343,500.109,1115.02869,498.72742Zm-5.20105,7.02881c.30468-.41217.61621-.8194.91394-1.23639a.48277.48277,0,0,1,.43933-.23816c1.887.00909,3.774.00531,5.66113.00634a1.24532,1.24532,0,0,1,.1626.02857c-.75,1.073-1.46094,2.13513-2.24512,3.14612a.85544.85544,0,0,1-.24682.32977.60193.60193,0,0,1-.19751.32147c-.27039.21424-.58338.06281-.87452.09217a6.493,6.493,0,0,1-.86816-.02173l-.32239.00519-.67468.01116h-3.55273C1108.65039,507.35046,1109.23853,506.553,1109.82764,505.75623Zm-4.77344,6.45886c.58545-.79035,1.17309-1.579,1.75427-2.37244a.49411.49411,0,0,1,.44275-.24408c1.13721.01373,2.27466.01154,3.41211.01489.23071,0,.45605.00464.67786.00464.26281,0,.39782.002.64856.002.16455,0,.33508-.008.50634-.008.23182-.01147.4635-.01007.78077-.02576-.49549.71015-.94556,1.36133-1.40235,2.00782-.39136.55413-.79284,1.10119-1.18384,1.65564-.08178.11572-.14123.21051-.31677.20983-2.049-.00787-4.098-.00506-6.23743-.00506C1104.47095,513.00287,1104.76257,512.609,1105.0542,512.21509Zm-2.37622,3.17908a1.185,1.185,0,0,1,1.2251-.6048c.522.05328,1.053.01831,1.57983.02215l.34167-.00311q.58028.00073,1.16053.00153l.76172.01043h1.82959c-.60938.86451-1.17969,1.69379-1.77246,2.5066-.324.44409-.5282,1.07714-1.0022,1.28241a4.33684,4.33684,0,0,1-1.60486.0556q-2.24469.00466-4.48938.00378c-.12073,0-.24146-.01361-.42065-.02441C1101.11072,517.53375,1101.929,516.48767,1102.678,515.39417Zm-6.318,8.56329c.88-1.19495,1.76477-2.38635,2.63586-3.58789a.70645.70645,0,0,1,.648-.33264c2.05359.01471,4.10718.00769,6.24267.00769-1.155,1.62939-2.26,3.18835-3.3656,4.74688a.30077.30077,0,0,1-.26867.15113c-2.17383-.00544-4.34754-.00385-6.57556-.00385A6.48418,6.48418,0,0,1,1096.36,523.95746Zm-1.569-19.90125-35.679,4.69159-.00171-.00018a11.31539,11.31539,0,1,1,3.1023-21.18408.68091.68091,0,0,1,.108.02148l32.68469,15.057A.74441.74441,0,0,1,1094.791,504.05621Zm-6.59449-57.08111-30.68615,18.798-.00184.00055a11.31528,11.31528,0,1,1-5.782-20.61444.67843.67843,0,0,1,.10742-.02435l35.98328.46118A.74438.74438,0,0,1,1088.19653,446.9751Zm-67.743-33.22589a11.26006,11.26006,0,0,1,4.44611-3.0633.68747.68747,0,0,1,.08826-.066l33.05993-14.21435a.74441.74441,0,0,1,.90747,1.10559l-20.38745,29.654-.00146.00134a11.3149,11.3149,0,1,1-18.11286-13.41729Zm-36.8988-19.03785a11.26058,11.26058,0,0,1,2.81579-4.60687.67977.67977,0,0,1,.05378-.09613l24.42022-26.43219a.74441.74441,0,0,1,1.27869.64093l-6.56348,35.38257-.00073.00171a11.31491,11.31491,0,1,1-22.00427-4.89Zm-40.75354-7.73791a.68407.68407,0,0,1,.01-.1095l11.558-34.07959a.74441.74441,0,0,1,1.42884.06543l8.39538,34.99323v.00177a11.31534,11.31534,0,1,1-21.39227-.87134Zm-43.08215-21.59876,21.90252,28.55323.00067.00152a11.31534,11.31534,0,1,1-19.89709,7.9054.68452.68452,0,0,1-.03546-.10437l-3.30262-35.83435A.74445.74445,0,0,1,899.71906,365.37469Zm-46.13648,34.25153,31.62262,17.176.00128.00116A11.31536,11.31536,0,1,1,870.245,432.11823c-.02314-.02967-.05579-.04688-.0749-.08094l-17.59222-31.393A.74442.74442,0,0,1,853.58258,399.62622Zm-28.21637,50.05566,35.87482,2.829.00165.00054a11.31533,11.31533,0,1,1-7.439,20.07612.68.68,0,0,1-.1012-.04346l-28.84-21.52356A.74441.74441,0,0,1,825.36621,449.68188Zm-26.50189,27.34388c.92493,1.27588,1.8645,2.54107,2.79907,3.81a6.89611,6.89611,0,0,1,.72559,1.04206c-2.366,0-4.67432-.00165-6.98267.00409a.31925.31925,0,0,1-.28534-.16046c-1.17407-1.655-2.34747-3.31055-3.574-5.04078,2.26776,0,4.44854.00739,6.62921-.00817A.75022.75022,0,0,1,798.86432,477.02576Zm-33.49219-11.43335c2.51782,0,4.93561.00305,7.35333-.00513.22358-.00073.30439.132.40436.27918.66907.98559,1.34607,1.96588,2.00788,2.95629a2.7143,2.7143,0,0,1,.52642.85926c-2.09515,0-4.161-.0492-6.22253.02252a1.87987,1.87987,0,0,1-1.97894-1.01587C766.86517,467.63428,766.1098,466.66937,765.37213,465.59241Zm.95862,4.09021c-2.122,0-4.233-.06934-6.33606.02893a1.93732,1.93732,0,0,1-2.21631-1.20758.40435.40435,0,0,1-.01227-.04248q-.1765-.26972-.35315-.53943-.70623-1.06385-1.41241-2.12763c-.0622-.06189-.22437-.1228-.00177-.18737a.06242.06242,0,0,1,.07092-.00629.08225.08225,0,0,1,.12842.00085l1.2-.00091a.084.084,0,0,1,.13678-.005l.1452.03162a1.38561,1.38561,0,0,1,.645-.02618h.00007q.37975.00118.75958.00244,2.09911-.07151,4.19812.00055l.14349-.00092a.06925.06925,0,0,1,.11823.00354c.13409.02527.17907.146.243.23908q1.16179,1.69016,2.31415,3.38684C766.19244,469.36652,766.36353,469.471,766.33075,469.68262Zm9.15686,1.40613a1.83258,1.83258,0,0,1,1.91821.98565c.61383,1.07453,1.3797,2.06214,2.10846,3.12836-.12341.00763-.19189.01562-.26043.01562-2.30091-.0003-4.60187-.006-6.90278.00415a.60781.60781,0,0,1-.578-.29986c-.45422-.6872-.92413-1.36414-1.38983-2.04376-.39392-.57489-.79047-1.14808-1.21826-1.769C771.329,471.10986,773.4101,471.15466,775.48761,471.08875Zm3.02289.07666c.074-.03266.09857-.05292.12311-.05292,2.30273-.001,4.60546.00464,6.90814-.00739a.54492.54492,0,0,1,.49383.2873q1.06715,1.51885,2.13849,3.03479c.17108.24261.34229.4851.556.78808-2.47766,0-4.85113-.004-7.22448.00635-.22632.001-.30658-.1308-.40473-.274C780.244,473.69727,779.3877,472.44641,778.5105,471.16541Zm-.7735-1.47638a.44291.44291,0,0,1-.41095-.2486c-.62024-.91412-1.24756-1.82349-1.87134-2.73529-.23773-.34754-.47229-.69733-.70978-1.04816.06055-.03637.08423-.063.108-.063q3.40914-.00511,6.81835-.0075a.40754.40754,0,0,1,.37745.17047c.90374,1.28729,1.81219,2.57135,2.76812,3.9256C782.398,469.6825,780.0675,469.67859,777.737,469.689Zm-3.85675-5.57032c-.18384.00061-.25281-.09723-.33862-.223-.41486-.60779-.83966-1.20892-1.25574-1.816-.47016-.686-.93482-1.37567-1.43353-2.11047.11938-.01264.17266-.0232.226-.0232,2.19812-.00024,4.39624.00458,6.59436-.005a.50289.50289,0,0,1,.45593.27338c.5307.75958,1.07123,1.51239,1.60492,2.27.3678.52215.73016,1.04821,1.13471,1.62957C778.47742,464.114,776.17883,464.11151,773.88025,464.11871Zm-1.95984-.00433h-.68591c-1.8003.00012-3.60486-.07477-5.39923.02814a2.15744,2.15744,0,0,1-2.32788-1.21082c-.56061-1.02325-1.30823-1.94409-2.0257-2.98456,2.46521,0,4.82562.00666,7.18591-.00781a.66605.66605,0,0,1,.66492.36914c.2309.39258.5144.754.77154,1.13141C770.69672,462.30981,771.287,463.1814,771.92041,464.11438Zm-10.36481-1.51361c.3357.48852.66449.98181,1.01075,1.4942H756.7146q-.27.00284-.54.0058c-.3678.00464-.73572.00452-1.10321.0163a.32711.32711,0,0,1-.3241-.171c-.31854-.50958-.6474-1.01263-.97247-1.51806l-.25836-.35462c-.46393-.68908-.92792-1.37817-1.40949-2.09356a1.25891,1.25891,0,0,1,.17316-.03253c2.38739-.00116,4.77472.00213,7.16205-.00666a.49973.49973,0,0,1,.461.26386C760.44855,461.0069,761.00616,461.801,761.5556,462.60077Zm-8.44323,1.4978h-2.6872l-.34888.00165-.2785.00128c-1.564.00446-3.12793.00342-4.69183.01935a.46246.46246,0,0,1-.44361-.27875c-.523-.85339-1.0567-1.70025-1.58526-2.55029-.26862-.432-.53437-.86585-.83075-1.34631,2.67212,0,5.2796.00122,7.88714-.00287a.38531.38531,0,0,1,.35346.21167c.41644.642.83972,1.27954,1.26056,1.9187q.17762.26523.3551.53052C752.431,463.08972,752.75934,463.57593,753.11237,464.09857Zm-4.28943,1.522.4425-.01221c1.06391-.02893,2.12775-.03559,3.19153.0072.45441-.007.90912-.0061,1.363-.02478a.44992.44992,0,0,1,.43481.23328c.31665.49157.63947.97924.95984,1.46844.52606.77912,1.052,1.55829,1.60773,2.38141h-3.11927l-1.25585-.0011c-1.297.00427-2.59412.00177-3.89093.0188-.239.00317-.32789-.12335-.4325-.29285-.71039-1.15094-1.42877-2.29693-2.14136-3.44653-.06341-.10236-.16626-.19806-.13177-.33166Zm.5346,5.49261c2.716-.0011,5.43207.00214,8.148-.00586a.49284.49284,0,0,1,.45539.27466c.54254.82483,1.09509,1.64307,1.64178,2.46515.28839.43365.572.87048.89765,1.36664-2.91571,0-5.74543-.00226-8.57514.00543a.3262.3262,0,0,1-.30517-.203c-.79023-1.27424-1.57868-2.5495-2.38636-3.85486A.54566.54566,0,0,1,749.35754,471.11322Zm11.09113,1.39722c-.29761-.44635-.59076-.89569-.92163-1.398,2.6203,0,5.157.00213,7.69379-.0044.18908-.00049.25006.11963.332.23755q.64278.92487,1.28436,1.85053c.44842.65008.89361,1.3023,1.35327,1.97259a.76624.76624,0,0,1-.1626.048c-2.50793.00244-5.01587.00067-7.52374.00811a.44793.44793,0,0,1-.4148-.25525C761.54889,474.14563,760.9953,473.33032,760.44867,472.51044Zm10.59271,4.169a.31192.31192,0,0,1,.2923.14893c1.13782,1.65942,2.28,3.31592,3.47748,5.05487-2.70166,0-5.30384-.00238-7.906.00482a.41.41,0,0,1-.37488-.24164c-.39685-.60211-.80139-1.19909-1.20031-1.79986-.68781-1.03589-1.37348-2.07318-2.09644-3.16474C765.88721,476.68182,768.46429,476.68262,771.04138,476.67944Zm3.28815,1.9607c-.431-.627-.85669-1.25757-1.3346-1.95978,2.51221,0,4.916.00354,7.31971-.00568.22754-.00085.30218.1399.40014.28272q1.07447,1.56573,2.14752,3.13244c.392.575.7757,1.15564,1.1966,1.78363-2.47858,0-4.86548-.004-7.25232.00623-.24121.001-.33472-.13342-.445-.29376C775.68579,480.603,775.00531,479.62311,774.32953,478.64014Zm7.94775-1.96015c2.49329,0,4.8971.00263,7.30091-.00464.20373-.00061.2774.11866.37225.25306q1.235,1.75158,2.47607,3.499c.3266.46179.64948.92621,1.0149,1.44763-2.52436,0-4.95514-.00073-7.386.00177a.35175.35175,0,0,1-.3324-.16223C784.596,480.06073,783.46332,478.41083,782.27728,476.68Zm12.67682-4.9378c.79541,1.16125,1.66437,2.27209,2.53925,3.45147-.19037.01148-.31855.02594-.44666.02594q-2.38375.0002-4.76745-.004a4.606,4.606,0,0,1-1.70417-.05908c-.50335-.218-.72027-.89026-1.06427-1.36182-.62957-.86316-1.2351-1.74378-1.88214-2.66181h1.94269l.809-.0111q.61615-.00082,1.23236-.00159l.36279.0033c.55964-.00409,1.12354.033,1.67786-.02356A1.25811,1.25811,0,0,1,794.9541,471.74219Zm-4.38617-5.89521c.61707.8426,1.24115,1.68006,1.8628,2.51929.30975.41828.61938.83661.97454,1.31623-2.27191,0-4.44775-.003-6.62359.00537-.18634.00073-.24958-.09992-.33631-.22284-.41522-.58875-.84155-1.16968-1.2572-1.75812-.485-.68659-.963-1.378-1.48926-2.13214.337.0166.58307.0152.82911.02734.18194,0,.36315.00849.53778.00849.26629,0,.40954-.00208.68872-.00208.23547,0,.47491-.00494.71991-.00494,1.20776-.00354,2.41565-.00122,3.62329-.01575A.52471.52471,0,0,1,790.56793,465.847Zm-4.17669-5.6524c.31628.44281.647.87531.97058,1.31293.62555.84613,1.25018,1.693,1.91674,2.59588h-3.77282l-.71643-.0119-.34241-.00543a6.8963,6.8963,0,0,1-.92181.02307c-.30927-.03119-.64161.12964-.92878-.0979a.64015.64015,0,0,1-.20971-.34137.9075.9075,0,0,1-.262-.35016c-.83282-1.07367-1.58783-2.20147-2.38427-3.34094a1.33548,1.33548,0,0,1,.17279-.0304c2.0039-.001,4.00781.003,6.01165-.00671A.51292.51292,0,0,1,786.39124,460.19458Zm-10.80744-6.32367q2.94022-.00723,5.88049-.01251a.42355.42355,0,0,1,.37439.18506c1.07807,1.4671,2.15857,2.93237,3.2967,4.47729-2.1352,0-4.18152-.00329-6.22779.0044-.23877.00085-.32733-.15308-.436-.3075q-.88917-1.26279-1.77893-2.52508-.6146-.87324-1.229-1.7497C775.53662,453.89807,775.56018,453.871,775.5838,453.87091Zm-8.75775.06494c.05988-.08105.26715-.0711.40839-.07141,2.02136-.00378,4.04272.00092,6.06408-.00629a.57768.57768,0,0,1,.5343.29645c.45374.66919.93122,1.32227,1.398,1.98267.54773.77478,1.09388,1.55072,1.6587,2.35174a1.27084,1.27084,0,0,1-.17627.03321c-2.18366.00055-4.36731-.00409-6.55091.00488a.52433.52433,0,0,1-.49524-.27466c-.88781-1.31885-1.79028-2.62781-2.68487-3.94214C766.9032,454.19421,766.73126,454.06415,766.82605,453.93585Zm-9.31378-.06573c2.39062-.00269,4.78131.00073,7.17187-.01319a.45136.45136,0,0,1,.413.26117q.60781.88714,1.21222,1.77668c.58264.85766,1.16388,1.7163,1.78045,2.62579-2.50628,0-4.93628-.00287-7.36615.00482-.22058.00073-.30218-.12659-.40448-.27545-.584-.84937-1.17682-1.69269-1.76147-2.54163-.40528-.5885-.80213-1.18274-1.2204-1.80047A1.12542,1.12542,0,0,1,757.51227,453.87012Zm-9.36749.04242c.04248-.05017.1596-.05072.24292-.05078q3.42956-.00185,6.85919.0014a.43762.43762,0,0,1,.42114.17645c1.00116,1.469,2.0094,2.93317,3.0719,4.48084-2.52454,0-4.9563-.00257-7.388.00476a.4137.4137,0,0,1-.37836-.238c-.913-1.37061-1.83154-2.73749-2.74188-4.10986C748.1825,454.10309,748.05914,454.01367,748.14478,453.91254Zm-9.5896.02c.057-.13111.21057-.06537.31848-.06568,2.37292-.0058,4.746-.00287,7.11889-.01306a.52376.52376,0,0,1,.49463.28339c.46253.71783.93946,1.42645,1.41162,2.13806.485.73089.97083,1.4613,1.4903,2.24316-2.66974,0-5.26184-.00226-7.85394.00421-.2074.00055-.27008-.12817-.35553-.26617q-1.24411-2.00813-2.49109-4.01447C738.629,454.14575,738.50464,454.04877,738.55518,453.93256Zm16.71222,31.55285a16.88065,16.88065,0,0,0-.01185,1.929l-.07727.019c-.08532-.132-.173-.26257-.25567-.39624q-3.94758-6.3847-7.89447-12.76984-4.13453-6.68454-8.27289-13.3667a1.11335,1.11335,0,0,1-.18189-.62255c.01056-.73767.00672-1.47565.00763-2.2135.00074-.579.00013-1.158.00013-1.86481.19482.2937.319.47107.43322.6546q2.21687,3.56122,4.43158,7.1239c3.50171,5.62311,6.96216,11.27271,10.53571,16.84973A6.8495,6.8495,0,0,1,755.2674,485.48541Zm.42785-3.91308c-.41705-.67591-.84082-1.3476-1.259-2.02283-.57776-.9328-1.15265-1.86737-1.74255-2.82343a.90618.90618,0,0,1,.16247-.03985q4.20365-.00549,8.40729-.01123a.37.37,0,0,1,.34759.20874c.327.50659.6731,1.00079,1.00776,1.50256.75824,1.13672,1.514,2.27515,2.32428,3.49341-2.99311,0-5.87977-.003-8.76636.00531A.52035.52035,0,0,1,755.69525,481.57233Zm1.49536,6.10974c-.35772.00073-.5061-.04035-.49243-.46167.03735-1.15045.03186-2.30341.00232-3.45429-.00983-.38238.11017-.44861.46222-.44812q11.15864.0151,22.31726.00751,2.67984-.00018,5.35962-.00012,8.48228-.00047,16.9646-.00708c.34924-.00055.48785.06494.47784.46026-.02978,1.18006-.01959,2.36158-.00079,3.54212.00476.29675-.08661.36261-.3689.36041-1.65069-.01288-3.30145-.00629-4.95221-.00629q-11.82422,0-23.64831,0Q765.25116,487.6748,757.19061,487.68207Z" transform="translate(-581.59369 -292.98181)"/><path class="cls-3" d="M1062.21265,487.56354a11.32984,11.32984,0,1,0-3.1023,21.18408l.00171.00018,35.679-4.69159a.74441.74441,0,0,0,.21435-1.41418l-32.68469-15.057A.68091.68091,0,0,0,1062.21265,487.56354Z" transform="translate(-581.59369 -292.98181)"/><path class="cls-3" d="M1051.72656,445.15918a11.32987,11.32987,0,1,0,5.782,20.61444l.00184-.00055,30.68615-18.798a.74438.74438,0,0,0-.37927-1.37909l-35.98328-.46118A.67843.67843,0,0,0,1051.72656,445.15918Z" transform="translate(-581.59369 -292.98181)"/><path class="cls-3" d="M1021.40741,429.72845a11.27117,11.27117,0,0,0,17.159-2.562l.00146-.00134,20.38745-29.654a.74441.74441,0,0,0-.90747-1.10559l-33.05993,14.21435a.68747.68747,0,0,0-.08826.066,11.31092,11.31092,0,0,0-3.49225,19.04254Z" transform="translate(-581.59369 -292.98181)"/><path class="cls-3" d="M990.92554,408.92114a11.27145,11.27145,0,0,0,14.63348-9.31976l.00073-.00171,6.56348-35.38257a.74441.74441,0,0,0-1.27869-.64093l-24.42022,26.43219a.67977.67977,0,0,0-.05378.09613,11.31088,11.31088,0,0,0,4.555,18.81665Z" transform="translate(-581.59369 -292.98181)"/><path class="cls-3" d="M954.61578,402.31085a11.27138,11.27138,0,0,0,9.5777-14.46606V387.843l-8.39538-34.99323a.74441.74441,0,0,0-1.42884-.06543l-11.558,34.07959a.68407.68407,0,0,0-.01.1095,11.31105,11.31105,0,0,0,11.81457,15.3374Z" transform="translate(-581.59369 -292.98181)"/><path class="cls-3" d="M901.72516,401.83484a11.32992,11.32992,0,1,0,19.89709-7.9054l-.00067-.00152-21.90252-28.55323a.74445.74445,0,0,0-1.332.52143l3.30262,35.83435A.68452.68452,0,0,0,901.72516,401.83484Z" transform="translate(-581.59369 -292.98181)"/><path class="cls-3" d="M870.1701,432.03729c.01911.03406.05176.05127.0749.08094a11.32985,11.32985,0,1,0,14.96148-15.31482l-.00128-.00116-31.62262-17.176a.74442.74442,0,0,0-1.0047,1.01807Z" transform="translate(-581.59369 -292.98181)"/><path class="cls-3" d="M853.70245,472.54413a.68.68,0,0,0,.1012.04346,11.32986,11.32986,0,1,0,7.439-20.07612l-.00165-.00054-35.87482-2.829a.74441.74441,0,0,0-.50378,1.33869Z" transform="translate(-581.59369 -292.98181)"/><path class="cls-3" d="M957,407.221a85.0992,85.0992,0,0,0-84.65076,95.18139,409.149,409.149,0,0,1,65.29834,10.69922c30.60675,7.24378,61.69666,15.88605,92.50232,22.01654.1908.038.38318.07209.574.10993A85.21147,85.21147,0,0,0,957,407.221Z" transform="translate(-581.59369 -292.98181)"/><path class="cls-3" d="M1195.19434,534.01312q-7.67451.01044-15.349.00519-1.843-.00009-3.68616-.00012-5.83374-.00027-11.6676-.00482c-.24012-.00037-.33557.04467-.32862.31653.02051.81158.01355,1.6242.00061,2.43615-.00329.2041.05957.24939.25367.24787,1.13525-.00885,2.27063-.00428,3.406-.00428q8.13208,0,16.26441-.00006,5.5437,0,11.0874.005c.24609.00049.34814-.02777.33874-.31751-.02575-.79126-.02185-1.58416-.00158-2.37573C1195.519,534.05835,1195.43652,534.01282,1195.19434,534.01312Z" transform="translate(-581.59369 -292.98181)"/><path class="cls-3" d="M1183.45581,550.66547c-.30029.00647-.38123-.06043-.38025-.37366.01257-3.98932.00525-7.9787.015-11.968.00073-.27-.06653-.33374-.333-.329-.9812.0174-1.96314.01227-2.94446.00049-.20544-.0025-.26111.06366-.25818.25738.00928.60822.005,1.21668.005,1.825q.00018,5.14655.00671,10.29309c.00049.1419-.02991.21313-.09131.25116q3.62842.05785,7.25171.08813a1.66062,1.66062,0,0,0-.37842-.05054C1185.38428,550.65173,1184.41968,550.64471,1183.45581,550.66547Z" transform="translate(-581.59369 -292.98181)"/><path class="cls-3" d="M1207.974,515.36224c-.13391.202-.21936.324-.298.45026q-1.52454,2.44931-3.04786,4.89954c-2.40832,3.86737-4.78833,7.75293-7.24609,11.58862a4.71054,4.71054,0,0,0-.88428,3.20319,11.60987,11.60987,0,0,1,.00818,1.32666l.0531.01306c.05872-.09076.11914-.18055.17591-.27253q2.7149-4.39113,5.42956-8.78259,2.84344-4.59741,5.6897-9.19311a.7655.7655,0,0,0,.12512-.42816c-.0072-.50733-.00464-1.0149-.00525-1.52234C1207.97363,516.24664,1207.974,515.84839,1207.974,515.36224Z" transform="translate(-581.59369 -292.98181)"/><path class="cls-3" d="M1198.26782,529.47949a.61949.61949,0,0,0-.11157-.0274q-2.89124-.00377-5.78223-.00775a.25462.25462,0,0,0-.23913.14355c-.225.34845-.46289.68836-.693,1.03339-.5216.78186-1.04126,1.56482-1.59863,2.40271,2.0586,0,4.04395-.00208,6.02918.0036a.35794.35794,0,0,0,.33117-.215c.28687-.46484.57825-.92682.86585-1.39123C1197.4668,530.77979,1197.8623,530.137,1198.26782,529.47949Z" transform="translate(-581.59369 -292.98181)"/><path class="cls-3" d="M1188.4939,533.02972a.28225.28225,0,0,0,.25781-.16619c.273-.41413.55115-.82471.82544-1.23792.47314-.7124.9447-1.42584,1.44189-2.17657-1.82507,0-3.59753.00054-5.36987-.00159a.21462.21462,0,0,0-.20117.10242c-.78247,1.14129-1.568,2.28051-2.3916,3.47656C1184.91455,533.02643,1186.7041,533.02472,1188.4939,533.02972Z" transform="translate(-581.59369 -292.98181)"/><path class="cls-3" d="M1172.64417,529.61865q-.84944,1.20465-1.703,2.40644c-.22461.31762-.44665.637-.698.9956,1.73621,0,3.408-.00049,5.07984.00128a.242.242,0,0,0,.22864-.11163c.775-1.13739,1.55407-2.27216,2.36987-3.46253-1.71472,0-3.368.00177-5.02136-.00323C1172.76,529.44415,1172.70947,529.52618,1172.64417,529.61865Z" transform="translate(-581.59369 -292.98181)"/><path class="cls-3" d="M1178.99609,529.63861q-.739,1.07685-1.47705,2.15436c-.26953.39545-.53344.7948-.823,1.22668,1.70484,0,3.34644-.00274,4.988.00428.16577.00073.2301-.09174.30591-.202.46484-.676.93286-1.34992,1.39771-2.026.29638-.43121.58911-.86493.91784-1.34784-1.7279,0-3.381.00238-5.0343-.00391C1179.11475,529.44354,1179.06348,529.54034,1178.99609,529.63861Z" transform="translate(-581.59369 -292.98181)"/><path class="cls-3" d="M1168.89185,533.02551a.21979.21979,0,0,0,.19628-.11041c.80738-1.13824,1.61451-2.27686,2.458-3.46686-1.55957,0-3.05957.00513-4.55932-.00561a.51593.51593,0,0,0-.47327.243c-.63611.8775-1.28235,1.74768-1.92517,2.62036a4.75408,4.75408,0,0,0-.499.71667C1165.71667,533.02264,1167.3042,533.02155,1168.89185,533.02551Z" transform="translate(-581.59369 -292.98181)"/><path class="cls-3" d="M1205.94238,516.9599c.14258.00037.18579-.0882.24451-.18311q.85565-1.38106,1.71326-2.761c.041-.06623.12646-.13294.09179-.21283-.0393-.09021-.14489-.045-.21911-.04517-1.632-.004-3.264-.00195-4.89612-.009a.36005.36005,0,0,0-.34009.19489c-.31811.49371-.64624.98107-.971,1.47045-.33349.50269-.66772,1.00507-1.0249,1.54279C1202.377,516.957,1204.15967,516.95538,1205.94238,516.9599Z" transform="translate(-581.59369 -292.98181)"/><path class="cls-3" d="M1198.79639,528.44318a.22442.22442,0,0,0,.21-.13965c.54345-.87634,1.08569-1.75348,1.64123-2.65125a.37675.37675,0,0,0-.08508-.03308c-1.868-.00079-3.73608.00141-5.604-.004a.339.339,0,0,0-.31324.18891c-.373.56726-.75317,1.13-1.12915,1.69543-.19824.29822-.39331.59863-.61731.93988C1194.90405,528.43939,1196.85034,528.43787,1198.79639,528.44318Z" transform="translate(-581.59369 -292.98181)"/><path class="cls-3" d="M1192.74524,516.96179c.15173.00049.20788-.0871.2782-.18945.40161-.58417.80932-1.16419,1.21142-1.74805.27881-.40472.55176-.81347.83936-1.23834a.77323.77323,0,0,0-.12036-.02588c-1.64417-.00189-3.28833.00049-4.9325-.00909a.31045.31045,0,0,0-.28406.17962q-.41784.6102-.83374,1.22193c-.40063.58984-.80041,1.18042-1.22436,1.80591C1189.40283,516.95844,1191.074,516.95648,1192.74524,516.96179Z" transform="translate(-581.59369 -292.98181)"/><path class="cls-3" d="M1199.1908,516.96161a.28428.28428,0,0,0,.26013-.1637c.62793-.94262,1.25976-1.88275,1.88574-2.8266.03394-.051.11877-.11255.05981-.18213-.02917-.03448-.10974-.03485-.167-.03491q-2.35876-.00119-4.71753.001a.30108.30108,0,0,0-.28967.12134c-.6886,1.01037-1.382,2.01733-2.11267,3.08172C1195.84595,516.95831,1197.51831,516.9566,1199.1908,516.96161Z" transform="translate(-581.59369 -292.98181)"/><path class="cls-3" d="M1191.806,528.27142c.3717-.56665.75232-1.12744,1.1283-1.69128.20471-.307.40625-.616.63391-.96149-1.80213,0-3.54676.00147-5.29151-.00305-.13-.0003-.172.08234-.22839.16339q-.442.63611-.8833,1.27271c-.30835.44708-.6145.89569-.93066,1.35669a.5258.5258,0,0,0,.11181.033c1.72485.00171,3.44971.00048,5.17456.00561A.30832.30832,0,0,0,1191.806,528.27142Z" transform="translate(-581.59369 -292.98181)"/><path class="cls-3" d="M1181.74829,516.95959c1.50171.00037,3.00366-.00286,4.50537.00336a.36058.36058,0,0,0,.34058-.1889c.61059-.90705,1.23132-1.80731,1.84656-2.71124.05432-.0799.17273-.16932.10742-.25757-.04114-.05573-.18372-.04889-.28089-.04908-1.39013-.00262-2.78039.00055-4.17065-.00439a.3974.3974,0,0,0-.36743.20392c-.312.46026-.64038.90942-.96143,1.36358-.37671.5329-.75244,1.06659-1.14087,1.6175A.88231.88231,0,0,0,1181.74829,516.95959Z" transform="translate(-581.59369 -292.98181)"/><path class="cls-3" d="M1187.28174,517.9342a.45789.45789,0,0,0-.45728.25391c-.15893.27-.35388.51856-.53076.77814-.40747.59833-.81348,1.19769-1.24914,1.83941h.4718c1.238.00007,2.47925-.05145,3.71338.01935a1.48383,1.48383,0,0,0,1.601-.83276c.38562-.70374.89978-1.3371,1.39319-2.05267C1190.52844,517.93958,1188.905,517.94415,1187.28174,517.9342Z" transform="translate(-581.59369 -292.98181)"/><path class="cls-3" d="M1181.272,526.28027c-.42224.739-.949,1.41822-1.45019,2.15155.08484.00525.132.01075.17907.01075,1.58252-.00019,3.165-.00415,4.74744.00286a.41817.41817,0,0,0,.39758-.20623c.31238-.47266.63562-.93824.95594-1.40564.27087-.39539.54358-.78961.83789-1.21668-1.48841,0-2.91968.03083-4.34851-.01452A1.26034,1.26034,0,0,0,1181.272,526.28027Z" transform="translate(-581.59369 -292.98181)"/><path class="cls-3" d="M1184.49084,521.81866c-.15368-.00054-.20935.09076-.27807.192-.46021.67786-.92578,1.35205-1.381,2.0332a1.86625,1.86625,0,0,0-.36206.591c1.44091,0,2.86181-.03382,4.27966.0155a1.29275,1.29275,0,0,0,1.361-.69867c.411-.72516.93054-1.38879,1.43775-2.12952C1187.81653,521.82214,1186.15369,521.82428,1184.49084,521.81866Z" transform="translate(-581.59369 -292.98181)"/><path class="cls-3" d="M1175.33667,525.81122q-.73389,1.04461-1.4707,2.08716c-.11768.16687-.23548.33368-.38257.54205,1.7041,0,3.33642-.00275,4.96875.00439.15576.00068.21094-.09.27844-.18847.58936-.86,1.17822-1.72022,1.78162-2.60126-.051-.02246-.06787-.03644-.08472-.03644-1.58374-.00067-3.16748.00324-4.75122-.00506A.37473.37473,0,0,0,1175.33667,525.81122Z" transform="translate(-581.59369 -292.98181)"/><path class="cls-3" d="M1180.239,516.96155c.16431.00061.2251-.10529.29993-.21149q.61139-.86847,1.22351-1.73663.42261-.60059.84522-1.20337c-.0503-.03082-.06641-.04944-.08265-.04944q-2.02221-.005-4.04431-.00861a.29138.29138,0,0,0-.25757.12726c-.74145,1.009-1.48461,2.01679-2.26733,3.07929C1177.42432,516.95856,1178.83167,516.9563,1180.239,516.96155Z" transform="translate(-581.59369 -292.98181)"/><path class="cls-3" d="M1181.08838,517.93536a.346.346,0,0,0-.3136.18805c-.365.5224-.73669,1.04016-1.10376,1.56122-.25305.35913-.5022.72089-.7804,1.12079,1.64429,0,3.2251-.00171,4.806.00323.12634.00037.17382-.06689.23278-.15338.2854-.41809.57764-.83148.86377-1.249.32325-.4718.64283-.94617.98584-1.45154-.082-.00866-.11865-.01593-.15527-.016C1184.11194,517.93866,1182.6001,517.942,1181.08838,517.93536Z" transform="translate(-581.59369 -292.98181)"/><path class="cls-3" d="M1178.07861,521.9353c-.62146.88538-1.24633,1.7685-1.90381,2.69989,1.66358,0,3.26648-.00268,4.86927.00446a.30458.30458,0,0,0,.28271-.171c.42664-.62872.858-1.25409,1.287-1.88123.16357-.239.32483-.47955.48816-.72088-.04163-.025-.058-.04334-.07422-.04334q-2.34467-.00357-4.68945-.00519A.28067.28067,0,0,0,1178.07861,521.9353Z" transform="translate(-581.59369 -292.98181)"/><path class="cls-3" d="M1171.04248,528.44067a3.16847,3.16847,0,0,0,1.17212-.04065c.34619-.1499.49536-.61224.73193-.93658.43311-.59363.84949-1.19934,1.29444-1.83069h-1.33606q-.27814-.00384-.55628-.00763l-.84765-.0011-.24952.00226c-.385-.00281-.7727.02271-1.154-.01617a.86506.86506,0,0,0-.89453.44165c-.54712.79864-1.14477,1.56268-1.74634,2.37378.13086.00793.219.01788.30713.01788Q1169.4032,528.44351,1171.04248,528.44067Z" transform="translate(-581.59369 -292.98181)"/><path class="cls-3" d="M1174.82349,524.63885c.12817.00049.17163-.06872.23132-.15325.28552-.40491.57873-.80445.86462-1.20917.33362-.47217.66236-.94776,1.0243-1.46637-.23182.01141-.401.01044-.57019.0188-.12513,0-.24976.00586-.36988.00586-.1831,0-.28174-.00147-.47363-.00147-.162,0-.32666-.00342-.49512-.00342-.83081-.00238-1.66137-.00079-2.49194-.0108a.361.361,0,0,0-.32349.17822c-.42431.57953-.85364,1.15546-1.28113,1.73273-.213.2876-.426.57532-.67028.90521C1171.83057,524.63519,1173.32715,524.63312,1174.82349,524.63885Z" transform="translate(-581.59369 -292.98181)"/><path class="cls-3" d="M1203.7915,520.61841c.35987-.587.72681-1.16937,1.09034-1.754.18481-.29712.36755-.59546.57141-.926-1.83777,0-3.63123.00091-5.42444-.002a.265.265,0,0,0-.24317.14563c-.28637.44153-.57751.88-.86694,1.31958l-.24426.36487-.69446,1.02826h1.84814l.24.0011.19152.00091c1.07557.00306,2.15125.00232,3.22693.01331A.31791.31791,0,0,0,1203.7915,520.61841Z" transform="translate(-581.59369 -292.98181)"/><path class="cls-3" d="M1201.41089,524.44006c.48852-.79156.98266-1.57977,1.47278-2.37042.04358-.07037.11438-.13617.09057-.228h-2.04406l-.30445-.00842c-.73169-.0199-1.46338-.02447-2.19494.00494-.31263-.00482-.62537-.00421-.9375-.017a.309.309,0,0,0-.29895.1604c-.21778.33813-.43995.67352-.66016,1.01-.36182.53588-.72363,1.07171-1.10584,1.63787h2.14539l.86377-.00079c.892.00293,1.78406.00122,2.676.01294C1201.27783,524.64368,1201.33887,524.55664,1201.41089,524.44006Z" transform="translate(-581.59369 -292.98181)"/><path class="cls-3" d="M1176.19385,520.78992l.23535-.00373a4.75234,4.75234,0,0,0,.634.01587c.21277-.02148.44141.08911.63892-.06732a.44149.44149,0,0,0,.14416-.2348.62386.62386,0,0,0,.18018-.24085c.57288-.7384,1.092-1.51409,1.63977-2.29779a.91622.91622,0,0,0-.11877-.02087c-1.3783-.00073-2.75647.002-4.13465-.00464a.35281.35281,0,0,0-.3208.17395c-.21753.30457-.44507.602-.66748.903-.4303.58191-.85986,1.16436-1.31836,1.78534h2.59485Z" transform="translate(-581.59369 -292.98181)"/><path class="cls-3" d="M1193.62659,517.93512a.34347.34347,0,0,0-.317.18146c-.37512.55188-.75854,1.098-1.13647,1.64807-.231.336-.457.67523-.69519,1.02765h4.02453l.37158.004c.25293.00324.50586.00312.75867.01124a.225.225,0,0,0,.2229-.11762c.21912-.35046.44519-.69647.66882-1.04407l.17774-.24389c.31909-.47394.63818-.94788.96936-1.43988a.88121.88121,0,0,0-.119-.0224C1196.9104,517.93884,1195.26855,517.9411,1193.62659,517.93512Z" transform="translate(-581.59369 -292.98181)"/><path class="cls-3" d="M1195.99365,521.96112c.04273-.04254.1543-.08441.00122-.12884a.043.043,0,0,0-.04883-.00434.05658.05658,0,0,0-.08837.00055l-.8252-.00061a.05781.05781,0,0,0-.09412-.00342l-.1.02173a.95316.95316,0,0,0-.4436-.018l-.52247.00164q-1.4436-.04916-2.8872.00043l-.09864-.00067a.0476.0476,0,0,0-.08129.00244c-.09229.0174-.1233.10047-.16724.16443q-.79908,1.16244-1.59155,2.32935c-.06238.0921-.18006.16388-.15747.30944,1.45947,0,2.91125-.04766,4.35766.0199a1.33245,1.33245,0,0,0,1.52429-.8305.26269.26269,0,0,0,.00843-.02924q.12157-.18549.24292-.371v.00006Q1195.50782,522.69276,1195.99365,521.96112Z" transform="translate(-581.59369 -292.98181)"/><path class="cls-3" d="M1138.70117,526.71692c.00928-.36011-.10376-.42243-.4353-.422q-10.50805.01428-21.016.00708-2.52357-.00018-5.04712-.00012-7.9876-.00036-15.97547-.00665c-.32885-.00055-.45935.06115-.44995.43341.02808,1.11126.01844,2.22387.00074,3.33557-.0044.27948.08154.34149.34741.33942,1.55444-.01209,3.109-.00592,4.66357-.00592q11.13465,0,22.26929,0,7.59063,0,15.18115.00689c.33692.00061.47669-.038.46387-.43481C1138.66821,528.88641,1138.67334,527.80072,1138.70117,526.71692Z" transform="translate(-581.59369 -292.98181)"/><path class="cls-3" d="M1121.2373,531.74658c-1.3435.02387-2.68786.01679-4.03161.00067-.28125-.00341-.35755.08716-.3534.35242.0127.83276.00672,1.66589.00684,2.49884q.00038,6.44532.0083,12.89063c1.60217.13739,3.20471.27941,4.806.40618.01453-5.23266.007-10.46545.01978-15.69818C1121.69409,531.82745,1121.60205,531.74011,1121.2373,531.74658Z" transform="translate(-581.59369 -292.98181)"/><path class="cls-3" d="M1155.76392,500.75793c-.18335.27662-.3003.44361-.408.61646q-2.0876,3.35358-4.1731,6.7085c-3.29761,5.29522-6.55615,10.61541-9.92139,15.86724a6.44918,6.44918,0,0,0-1.21081,4.38587,15.895,15.895,0,0,1,.01111,1.81653l.07275.01788c.08032-.12433.163-.24725.24072-.37317q3.71742-6.01236,7.43433-12.02521,3.89319-6.29479,7.79041-12.58734a1.04725,1.04725,0,0,0,.17126-.58624c-.00989-.6947-.00635-1.38959-.00708-2.08441C1155.76343,501.96881,1155.76392,501.42352,1155.76392,500.75793Z" transform="translate(-581.59369 -292.98181)"/><path class="cls-3" d="M1142.47424,520.0874a.85071.85071,0,0,0-.15295-.03753q-3.95856-.00513-7.917-.01056a.34827.34827,0,0,0-.3274.19653c-.308.477-.63391.94244-.949,1.41492-.71411,1.07049-1.42578,2.14251-2.18884,3.28979,2.8186,0,5.537-.00287,8.25525.005a.48994.48994,0,0,0,.45337-.29444c.39282-.63647.79174-1.269,1.18554-1.90484C1141.37744,521.8678,1141.9187,520.98773,1142.47424,520.0874Z" transform="translate(-581.59369 -292.98181)"/><path class="cls-3" d="M1129.09143,524.94836a.38591.38591,0,0,0,.353-.22753c.37366-.567.75476-1.12916,1.13037-1.69489.6477-.97552,1.29333-1.95233,1.97424-2.98022-2.499,0-4.92578.00073-7.35266-.0022a.2936.2936,0,0,0-.27527.1402c-1.07141,1.56268-2.147,3.12255-3.27466,4.76013C1124.19055,524.94385,1126.64111,524.94159,1129.09143,524.94836Z" transform="translate(-581.59369 -292.98181)"/><path class="cls-3" d="M1107.38989,520.278q-1.16309,1.64941-2.33166,3.29493c-.3075.43487-.6117.87219-.95569,1.36322,2.3772,0,4.66626-.00068,6.95532.00164a.33111.33111,0,0,0,.313-.15277c1.06128-1.55737,2.12793-3.111,3.24487-4.741-2.3479,0-4.61157.00244-6.87524-.0044C1107.54858,520.03906,1107.47925,520.15137,1107.38989,520.278Z" transform="translate(-581.59369 -292.98181)"/><path class="cls-3" d="M1116.087,520.30524q-1.01166,1.47446-2.02234,2.94983c-.36914.54138-.73047,1.08819-1.12671,1.67956,2.334,0,4.58179-.00378,6.82934.00586.2273.001.31519-.12561.41907-.27661.63648-.92566,1.27722-1.84833,1.9137-2.774.40576-.59039.80664-1.18426,1.25659-1.84546-2.36572,0-4.62915.0033-6.89282-.00537C1116.24951,520.03821,1116.17932,520.17072,1116.087,520.30524Z" transform="translate(-581.59369 -292.98181)"/><path class="cls-3" d="M1102.2522,524.94263a.30077.30077,0,0,0,.26867-.15113c1.10559-1.55853,2.21058-3.11749,3.3656-4.74688-2.13549,0-4.18908.007-6.24267-.00769a.70645.70645,0,0,0-.648.33264c-.87109,1.20154-1.75586,2.39294-2.63586,3.58789a6.48418,6.48418,0,0,0-.68335.98132C1097.90466,524.93878,1100.07837,524.93719,1102.2522,524.94263Z" transform="translate(-581.59369 -292.98181)"/><path class="cls-3" d="M1152.98218,502.94543c.19531.00049.25439-.12072.33484-.25067q1.1715-1.89111,2.34582-3.78045c.056-.09064.1731-.18195.12549-.29139-.05371-.12347-.19824-.06158-.2998-.06182-2.23462-.00544-4.46924-.00269-6.70386-.01227a.49322.49322,0,0,0-.46582.26684c-.43555.676-.88452,1.34327-1.32935,2.01337-.45666.68829-.91406,1.3761-1.40332,2.11237C1148.10034,502.94141,1150.54126,502.93927,1152.98218,502.94543Z" transform="translate(-581.59369 -292.98181)"/><path class="cls-3" d="M1143.198,518.66846a.30731.30731,0,0,0,.28735-.19123c.74414-1.19989,1.48657-2.40081,2.24719-3.63006a.51632.51632,0,0,0-.11657-.04535c-2.55774-.001-5.11536.002-7.673-.00549a.46416.46416,0,0,0-.42883.25866c-.511.77668-1.03125,1.54718-1.546,2.32135-.27161.40839-.5387.81977-.84534,1.28693C1137.86853,518.66327,1140.5332,518.66119,1143.198,518.66846Z" transform="translate(-581.59369 -292.98181)"/><path class="cls-3" d="M1134.9126,502.948c.20764.00067.28442-.11926.38086-.2594.55-.79981,1.10815-1.594,1.65869-2.39343.38171-.5542.75537-1.11377,1.14929-1.6955a1.061,1.061,0,0,0-.16467-.03552c-2.25135-.0025-4.50269.00073-6.75379-.01239a.425.425,0,0,0-.38891.24591q-.5722.83541-1.14148,1.673c-.54871.80768-1.09607,1.61634-1.67664,2.47272C1130.33618,502.94342,1132.62427,502.94073,1134.9126,502.948Z" transform="translate(-581.59369 -292.98181)"/><path class="cls-3" d="M1143.73779,502.94775a.38941.38941,0,0,0,.35633-.22406c.85974-1.29071,1.72473-2.57788,2.58191-3.8703.04638-.06982.16259-.154.0819-.24933-.03991-.04724-.15026-.04772-.22876-.04779q-3.22961-.00163-6.45922.00129a.41241.41241,0,0,0-.39661.16619c-.94275,1.38337-1.89221,2.76215-2.89282,4.21955C1139.158,502.9433,1141.44788,502.94092,1143.73779,502.94775Z" transform="translate(-581.59369 -292.98181)"/><path class="cls-3" d="M1133.62646,518.43335c.509-.77594,1.03028-1.5437,1.545-2.3158.28027-.42028.55627-.84344.86792-1.31646-2.46765,0-4.85632.002-7.24524-.00415-.178-.00043-.23535.11267-.31262.22369q-.60518.87095-1.20948,1.74268c-.42224.61212-.84143,1.22631-1.27429,1.85754a.72252.72252,0,0,0,.15308.04523c2.36169.00232,4.72339.00067,7.085.00763A.4217.4217,0,0,0,1133.62646,518.43335Z" transform="translate(-581.59369 -292.98181)"/><path class="cls-3" d="M1119.85522,502.945c2.0564.00049,4.1128-.00391,6.16895.00457a.49359.49359,0,0,0,.46631-.2586c.83618-1.24194,1.686-2.47461,2.52832-3.71228.07446-.10938.23645-.23181.14722-.35266-.0564-.0763-.25171-.067-.38453-.0672-1.90356-.0036-3.80712.00079-5.71069-.006a.544.544,0,0,0-.50305.27917c-.42725.63019-.87683,1.24518-1.31653,1.86707-.51575.72961-1.03,1.46032-1.562,2.21466A1.20507,1.20507,0,0,0,1119.85522,502.945Z" transform="translate(-581.59369 -292.98181)"/><path class="cls-3" d="M1127.43188,504.27948a.62709.62709,0,0,0-.62622.34766c-.21753.36963-.48437.71-.72656,1.06543-.5581.81915-1.114,1.63989-1.71045,2.51855.26709,0,.45655-.00006.64588,0,1.69531.00006,3.39465-.0705,5.08447.02649a2.0315,2.0315,0,0,0,2.192-1.14026c.52807-.96356,1.23205-1.83075,1.90771-2.81055C1131.8772,504.2868,1129.65454,504.29309,1127.43188,504.27948Z" transform="translate(-581.59369 -292.98181)"/><path class="cls-3" d="M1119.20312,515.707c-.57812,1.01184-1.29931,1.94189-1.98559,2.94592.11621.00721.18079.01471.24536.01471,2.16675-.00024,4.3335-.00567,6.50024.004a.57232.57232,0,0,0,.54419-.28241c.42774-.64716.87037-1.28461,1.30884-1.92456.3711-.54144.74439-1.08118,1.14722-1.666-2.03784,0-3.99756.04223-5.95386-.0199A1.72579,1.72579,0,0,0,1119.20312,515.707Z" transform="translate(-581.59369 -292.98181)"/><path class="cls-3" d="M1123.6106,509.59808c-.21058-.00073-.28663.12427-.38086.26294-.63013.9281-1.26758,1.85126-1.89087,2.78388a2.55749,2.55749,0,0,0-.49561.80914c1.9729,0,3.91821-.04633,5.85962.02124a1.7702,1.7702,0,0,0,1.86353-.95666c.56274-.99286,1.274-1.90149,1.96875-2.91571C1128.16406,509.60291,1125.88721,509.60577,1123.6106,509.59808Z" transform="translate(-581.59369 -292.98181)"/><path class="cls-3" d="M1111.07642,515.06476q-1.0049,1.43024-2.01368,2.85779c-.16113.22845-.32226.45684-.52368.74212,2.33325,0,4.56836-.00372,6.80323.006.21313.00091.28881-.12323.38122-.25812.807-1.17743,1.61316-2.35529,2.43933-3.56165-.0697-.0307-.09277-.0498-.116-.0498-2.16846-.001-4.33692.00433-6.50538-.007A.51339.51339,0,0,0,1111.07642,515.06476Z" transform="translate(-581.59369 -292.98181)"/><path class="cls-3" d="M1117.78882,502.94769c.22485.00086.30835-.1441.41064-.28955q.83734-1.18908,1.6753-2.37781.57861-.82231,1.15722-1.6477c-.0686-.04218-.09082-.06769-.113-.06775q-2.76892-.00687-5.5376-.01172a.39879.39879,0,0,0-.35266.17426c-1.01526,1.38153-2.03272,2.76135-3.1045,4.21618C1113.93494,502.9436,1115.86194,502.94055,1117.78882,502.94769Z" transform="translate(-581.59369 -292.98181)"/><path class="cls-3" d="M1118.95178,504.28107a.47354.47354,0,0,0-.42932.25744c-.49975.71534-1.00879,1.4242-1.51135,2.13764-.34632.49176-.68762.98712-1.06848,1.5346,2.25134,0,4.416-.00238,6.58056.0044.173.00055.23792-.09155.31885-.21.39063-.57245.79053-1.13849,1.18237-1.71015.44288-.64593.88038-1.29547,1.3501-1.98736-.11255-.012-.1626-.02191-.21289-.02191C1123.09167,504.28552,1121.02173,504.2901,1118.95178,504.28107Z" transform="translate(-581.59369 -292.98181)"/><path class="cls-3" d="M1114.83093,509.75787c-.85107,1.21222-1.70642,2.42139-2.60681,3.69666,2.27783,0,4.47241-.00366,6.667.0061a.41715.41715,0,0,0,.38721-.23407c.584-.86084,1.1748-1.71716,1.76209-2.5758.224-.32727.44482-.65662.66833-.987-.05688-.0343-.07935-.05939-.10156-.05945q-3.21057-.00475-6.42078-.007A.38363.38363,0,0,0,1114.83093,509.75787Z" transform="translate(-581.59369 -292.98181)"/><path class="cls-3" d="M1105.1969,518.665a4.33684,4.33684,0,0,0,1.60486-.0556c.474-.20527.67822-.83832,1.0022-1.28241.59277-.81281,1.16308-1.64209,1.77246-2.5066h-1.82959l-.76172-.01043q-.58008-.00073-1.16053-.00153l-.34167.00311c-.52686-.00384-1.05786.03113-1.57983-.02215a1.185,1.185,0,0,0-1.2251.6048c-.749,1.0935-1.56726,2.13958-2.39111,3.25018.17919.0108.29992.02441.42065.02441Q1102.952,518.66894,1105.1969,518.665Z" transform="translate(-581.59369 -292.98181)"/><path class="cls-3" d="M1110.3739,513.45959c.17554.00068.235-.09411.31677-.20983.391-.55445.79248-1.10151,1.18384-1.65564.45679-.64649.90686-1.29767,1.40235-2.00782-.31727.01569-.54895.01429-.78077.02576-.17126,0-.34179.008-.50634.008-.25074,0-.38575-.002-.64856-.002-.22181,0-.44715-.00464-.67786-.00464-1.13745-.00335-2.2749-.00116-3.41211-.01489a.49411.49411,0,0,0-.44275.24408c-.58118.79346-1.16882,1.58209-1.75427,2.37244-.29163.39386-.58325.78778-.91773,1.23944C1106.27588,513.45453,1108.325,513.45172,1110.3739,513.45959Z" transform="translate(-581.59369 -292.98181)"/><path class="cls-3" d="M1146.77759,513.18738c.66907-1.08386,1.34558-2.163,2.0166-3.24561.05969-.09637.15649-.18646.124-.31225h-2.79883l-.41674-.01154c-1.002-.02722-2.00367-.03351-3.00537.00678-.428-.0066-.85621-.00574-1.2837-.02332a.42373.42373,0,0,0-.40942.21967c-.2981.463-.602.92218-.90381,1.38281-.49536.7337-.99072,1.46741-1.514,2.24255h2.93738q.59144-.00045,1.18262-.001c1.22143.004,2.44287.00165,3.66406.0177C1146.59546,513.46613,1146.6792,513.347,1146.77759,513.18738Z" transform="translate(-581.59369 -292.98181)"/><path class="cls-3" d="M1150.03735,507.95471c.49244-.80365.99512-1.60113,1.4928-2.40161.25293-.40686.5033-.81537.78235-1.26782-2.51636,0-4.9718.00116-7.42725-.00269a.36262.36262,0,0,0-.33288.19934c-.39221.60456-.79077,1.2049-1.18714,1.80677l-.33435.49963c-.3092.45782-.6184.91565-.9508,1.4079h2.53052l.32836.00146.26233.00122c1.47278.00421,2.94568.00324,4.41834.01825A.43549.43549,0,0,0,1150.03735,507.95471Z" transform="translate(-581.59369 -292.98181)"/><path class="cls-3" d="M1112.25012,508.18958l.32239-.00519a6.493,6.493,0,0,0,.86816.02173c.29114-.02936.60413.12207.87452-.09217a.60193.60193,0,0,0,.19751-.32147.85544.85544,0,0,0,.24682-.32977c.78418-1.011,1.49512-2.07312,2.24512-3.14612a1.24532,1.24532,0,0,0-.1626-.02857c-1.88708-.001-3.77417.00275-5.66113-.00634a.48277.48277,0,0,0-.43933.23816c-.29773.417-.60926.82422-.91394,1.23639-.58911.79675-1.17725,1.59423-1.80493,2.44451h3.55273Z" transform="translate(-581.59369 -292.98181)"/><path class="cls-3" d="M1136.11938,504.2807a.47038.47038,0,0,0-.43408.24847c-.51367.75562-1.03882,1.50348-1.55615,2.25654-.31616.46008-.62573.92456-.9519,1.4071h5.51049q.25452.00265.50867.00543c.34631.0044.69275.00427,1.03894.01538a.30817.30817,0,0,0,.30518-.16107c.2998-.47986.60962-.95355.91577-1.42956l.24316-.33393c.437-.64892.87378-1.29785,1.3274-1.97143a1.17736,1.17736,0,0,0-.16309-.0307C1140.6156,504.28583,1138.36743,504.28894,1136.11938,504.2807Z" transform="translate(-581.59369 -292.98181)"/><path class="cls-3" d="M1135.599,513.48187a1.82424,1.82424,0,0,0,2.087-1.1372.36833.36833,0,0,0,.01159-.04q.16626-.254.33264-.508.665-1.00176,1.33-2.00354c.05859-.05823.2113-.1156.00171-.17645a.05887.05887,0,0,0-.06677-.00592.07748.07748,0,0,0-.121.00079q-.565-.00036-1.13-.00085a.07923.07923,0,0,0-.12891-.0047l-.13672.02978a1.304,1.304,0,0,0-.60742-.02465l-.71533.00225q-1.97662-.06729-3.95337.00055l-.135-.00085a.06522.06522,0,0,0-.11133.00329c-.12634.02387-.1687.13752-.229.22516q-1.09388,1.59165-2.1792,3.18933c-.0852.1261-.24634.22443-.21558.42377C1131.63062,513.45465,1133.61853,513.38934,1135.599,513.48187Z" transform="translate(-581.59369 -292.98181)"/><path class="cls-3" d="M801.91235,487.68109c.28229.0022.37366-.06366.3689-.36041-.0188-1.18054-.029-2.36206.00079-3.54212.01-.39532-.1286-.46081-.47784-.46026q-8.48228.01345-16.9646.00708-2.67984.00009-5.35962.00012-11.15863.00018-22.31726-.00751c-.35205-.00049-.47205.06574-.46222.44812.02954,1.15088.035,2.30384-.00232,3.45429-.01367.42132.13471.4624.49243.46167q8.06058-.016,16.12122-.00727,11.82412.0001,23.64831,0C798.6109,487.6748,800.26166,487.66821,801.91235,487.68109Z" transform="translate(-581.59369 -292.98181)"/><path class="cls-3" d="M779.90228,489.48212c.00428-.28168-.07672-.37781-.37536-.37421-1.427.01715-2.85456.0246-4.28125-.00067-.38745-.0069-.48517.08581-.4842.47839.01331,5.47309.00623,10.94617.02063,16.41919q2.54965-.40274,5.10437-.77124.0131-6.54885.00849-13.09784C779.895,491.25116,779.88879,490.36652,779.90228,489.48212Z" transform="translate(-581.59369 -292.98181)"/><path class="cls-3" d="M743.44592,463.97827q-2.21749-3.56094-4.43158-7.1239c-.11425-.18353-.2384-.3609-.43322-.6546,0,.70679.00061,1.28583-.00013,1.86481-.00091.73785.00293,1.47583-.00763,2.2135a1.11335,1.11335,0,0,0,.18189.62255q4.138,6.68235,8.27289,13.3667,3.94857,6.38407,7.89447,12.76984c.08264.13367.17035.26422.25567.39624l.07727-.019a16.88065,16.88065,0,0,1,.01185-1.929,6.8495,6.8495,0,0,0-1.28577-4.65741C750.40808,475.251,746.94763,469.60138,743.44592,463.97827Z" transform="translate(-581.59369 -292.98181)"/><path class="cls-3" d="M764.94312,481.8797c-.81031-1.21826-1.566-2.35669-2.32428-3.49341-.33466-.50177-.68073-.996-1.00776-1.50256a.37.37,0,0,0-.34759-.20874q-4.20365.01006-8.40729.01123a.90618.90618,0,0,0-.16247.03985c.5899.95606,1.16479,1.89063,1.74255,2.82343.41815.67523.84192,1.34692,1.259,2.02283a.52035.52035,0,0,0,.48151.31268C759.06335,481.87671,761.95,481.8797,764.94312,481.8797Z" transform="translate(-581.59369 -292.98181)"/><path class="cls-3" d="M766.53027,481.64642a.41.41,0,0,0,.37488.24164c2.60217-.0072,5.20435-.00482,7.906-.00482-1.19751-1.73895-2.33966-3.39545-3.47748-5.05487a.31192.31192,0,0,0-.2923-.14893c-2.57709.00318-5.15417.00238-7.80786.00238.723,1.09156,1.40863,2.12885,2.09644,3.16474C765.72888,480.44733,766.13342,481.04431,766.53027,481.64642Z" transform="translate(-581.59369 -292.98181)"/><path class="cls-3" d="M786.05542,481.87677c2.43085-.0025,4.86163-.00177,7.386-.00177-.36542-.52142-.6883-.98584-1.0149-1.44763q-1.23743-1.74985-2.47607-3.499c-.09485-.1344-.16852-.25367-.37225-.25306-2.40381.00727-4.80762.00464-7.30091.00464,1.186,1.73084,2.31873,3.38074,3.44574,5.03455A.35175.35175,0,0,0,786.05542,481.87677Z" transform="translate(-581.59369 -292.98181)"/><path class="cls-3" d="M776.80658,481.8797c2.38684-.01025,4.77374-.00623,7.25232-.00623-.4209-.628-.80457-1.20868-1.1966-1.78363q-1.06979-1.56894-2.14752-3.13244c-.098-.14282-.1726-.28357-.40014-.28272-2.40375.00922-4.8075.00568-7.31971.00568.47791.70221.90357,1.33282,1.3346,1.95978.67578.983,1.35626,1.96283,2.0321,2.9458C776.47186,481.74628,776.56537,481.88074,776.80658,481.8797Z" transform="translate(-581.59369 -292.98181)"/><path class="cls-3" d="M791.54694,476.68066c1.22656,1.73023,2.4,3.38581,3.574,5.04078a.31925.31925,0,0,0,.28534.16046c2.30835-.00574,4.6167-.00409,6.98267-.00409a6.89611,6.89611,0,0,0-.72559-1.04206c-.93457-1.26892-1.87414-2.53411-2.79907-3.81a.75022.75022,0,0,0-.68817-.35327C795.99548,476.68805,793.8147,476.68066,791.54694,476.68066Z" transform="translate(-581.59369 -292.98181)"/><path class="cls-3" d="M741.17963,458.25647c.08545.138.14813.26672.35553.26617,2.5921-.00647,5.1842-.00421,7.85394-.00421-.51947-.78186-1.00531-1.51227-1.4903-2.24316-.47216-.71161-.94909-1.42023-1.41162-2.13806a.52376.52376,0,0,0-.49463-.28339c-2.37292.01019-4.746.00726-7.11889.01306-.10791.00031-.26148-.06543-.31848.06568-.05054.11621.07379.21319.13336.30944Q739.93146,456.25086,741.17963,458.25647Z" transform="translate(-581.59369 -292.98181)"/><path class="cls-3" d="M751.92523,475.21924c2.82971-.00769,5.65943-.00543,8.57514-.00543-.32563-.49616-.60926-.933-.89765-1.36664-.54669-.82208-1.09924-1.64032-1.64178-2.46515a.49284.49284,0,0,0-.45539-.27466c-2.71594.008-5.432.00476-8.148.00586a.54566.54566,0,0,0-.12384.04816c.80768,1.30536,1.59613,2.58062,2.38636,3.85486A.3262.3262,0,0,0,751.92523,475.21924Z" transform="translate(-581.59369 -292.98181)"/><path class="cls-3" d="M760.31915,458.24994c.1023.14886.1839.27618.40448.27545,2.42987-.00769,4.85987-.00482,7.36615-.00482-.61657-.90949-1.19781-1.76813-1.78045-2.62579q-.60435-.88953-1.21222-1.77668a.45136.45136,0,0,0-.413-.26117c-2.39056.01392-4.78125.0105-7.17187.01319a1.12542,1.12542,0,0,0-.175.03772c.41827.61773.81512,1.212,1.2204,1.80047C759.14233,456.55725,759.73511,457.40057,760.31915,458.24994Z" transform="translate(-581.59369 -292.98181)"/><path class="cls-3" d="M750.97357,458.28717a.4137.4137,0,0,0,.37836.238c2.4317-.00733,4.86346-.00476,7.388-.00476-1.0625-1.54767-2.07074-3.01184-3.0719-4.48084a.43762.43762,0,0,0-.42114-.17645q-3.42957-.00091-6.85919-.0014c-.08332.00006-.20044.00061-.24292.05078-.08564.10113.03772.19055.08691.26477C749.142,455.54968,750.06061,456.91656,750.97357,458.28717Z" transform="translate(-581.59369 -292.98181)"/><path class="cls-3" d="M762.50409,475.22485c2.50787-.00744,5.01581-.00567,7.52374-.00811a.76624.76624,0,0,0,.1626-.048c-.45966-.67029-.90485-1.32251-1.35327-1.97259q-.6395-.92707-1.28436-1.85053c-.08191-.11792-.14289-.238-.332-.23755-2.53675.00653-5.07349.0044-7.69379.0044.33087.50232.624.95166.92163,1.398.54663.81988,1.10022,1.63519,1.64062,2.45916A.44793.44793,0,0,0,762.50409,475.22485Z" transform="translate(-581.59369 -292.98181)"/><path class="cls-3" d="M769.66711,458.25244a.52433.52433,0,0,0,.49524.27466c2.1836-.009,4.36725-.00433,6.55091-.00488a1.27084,1.27084,0,0,0,.17627-.03321c-.56482-.801-1.111-1.577-1.6587-2.35174-.46679-.6604-.94427-1.31348-1.398-1.98267a.57768.57768,0,0,0-.5343-.29645c-2.02136.00721-4.04272.00251-6.06408.00629-.14124.00031-.34851-.00964-.40839.07141-.09479.1283.07715.25836.15619.37445C767.87683,455.62463,768.7793,456.93359,769.66711,458.25244Z" transform="translate(-581.59369 -292.98181)"/><path class="cls-3" d="M769.33252,460.30847a.66605.66605,0,0,0-.66492-.36914c-2.36029.01447-4.7207.00781-7.18591.00781.71747,1.04047,1.46509,1.96131,2.0257,2.98456a2.15744,2.15744,0,0,0,2.32788,1.21082c1.79437-.10291,3.59893-.028,5.39923-.02814h.68591c-.63342-.933-1.22369-1.80457-1.81635-2.6745C769.84692,461.0625,769.56342,460.70105,769.33252,460.30847Z" transform="translate(-581.59369 -292.98181)"/><path class="cls-3" d="M771.77307,474.92267a.60781.60781,0,0,0,.578.29986c2.30091-.01019,4.60187-.00445,6.90278-.00415.06854,0,.137-.008.26043-.01562-.72876-1.06622-1.49463-2.05383-2.10846-3.12836a1.83258,1.83258,0,0,0-1.91821-.98565c-2.07751.06591-4.15857.02111-6.32263.02111.42779.621.82434,1.19416,1.21826,1.769C770.84894,473.55853,771.31885,474.23547,771.77307,474.92267Z" transform="translate(-581.59369 -292.98181)"/><path class="cls-3" d="M769.44159,469.70453c2.06158-.07172,4.12738-.02252,6.22253-.02252a2.7143,2.7143,0,0,0-.52642-.85926c-.66181-.99041-1.33881-1.9707-2.00788-2.95629-.1-.14722-.18078-.27991-.40436-.27918-2.41772.00818-4.83551.00513-7.35333.00513.73767,1.077,1.493,2.04187,2.09052,3.09625A1.87987,1.87987,0,0,0,769.44159,469.70453Z" transform="translate(-581.59369 -292.98181)"/><path class="cls-3" d="M781.50562,475.22162c2.37335-.01032,4.74682-.00635,7.22448-.00635-.21374-.303-.385-.54547-.556-.78808q-1.06969-1.517-2.13849-3.03479a.54492.54492,0,0,0-.49383-.2873c-2.30268.012-4.60541.00635-6.90814.00739-.02454,0-.04914.02026-.12311.05292.8772,1.281,1.73346,2.53186,2.59039,3.78216C781.199,475.09082,781.2793,475.22266,781.50562,475.22162Z" transform="translate(-581.59369 -292.98181)"/><path class="cls-3" d="M778.47156,458.21765c.1087.15442.19726.30835.436.3075,2.04627-.00769,4.09259-.0044,6.22779-.0044-1.13813-1.54492-2.21863-3.01019-3.2967-4.47729a.42355.42355,0,0,0-.37439-.18506q-2.94021.009-5.88049.01251c-.02362.00006-.04718.02716-.12018.072q.61588.877,1.229,1.7497Q777.58152,456.95544,778.47156,458.21765Z" transform="translate(-581.59369 -292.98181)"/><path class="cls-3" d="M778.1286,460.21442a.50289.50289,0,0,0-.45593-.27338c-2.19812.00958-4.39624.00476-6.59436.005-.05329,0-.10657.01056-.226.0232.49871.7348.96337,1.4245,1.43353,2.11047.41608.60706.84088,1.20819,1.25574,1.816.08581.12579.15478.22363.33862.223,2.29858-.0072,4.59717-.0047,6.988-.0047-.40455-.58136-.76691-1.10742-1.13471-1.62957C779.19983,461.72681,778.6593,460.974,778.1286,460.21442Z" transform="translate(-581.59369 -292.98181)"/><path class="cls-3" d="M781.67126,465.58643q-3.40923.00484-6.81835.0075c-.02375,0-.04743.02668-.108.063.23749.35083.47205.70062.70978,1.04816.62378.9118,1.2511,1.82117,1.87134,2.73529a.44291.44291,0,0,0,.41095.2486c2.3305-.01044,4.661-.00653,7.07983-.00653-.95593-1.35425-1.86438-2.63831-2.76812-3.9256A.40754.40754,0,0,0,781.67126,465.58643Z" transform="translate(-581.59369 -292.98181)"/><path class="cls-3" d="M791.97546,471.12354l-.36279-.0033q-.61615.00073-1.23236.00159l-.809.0111h-1.94269c.647.918,1.25257,1.79865,1.88214,2.66181.344.47156.56092,1.14386,1.06427,1.36182a4.606,4.606,0,0,0,1.70417.05908q2.38376.00484,4.76745.004c.12811,0,.25629-.01446.44666-.02594-.87488-1.17938-1.74384-2.29022-2.53925-3.45147a1.25811,1.25811,0,0,0-1.30078-.64221C793.099,471.15656,792.5351,471.11945,791.97546,471.12354Z" transform="translate(-581.59369 -292.98181)"/><path class="cls-3" d="M785.75452,465.60852c-.27918,0-.42243.00208-.68872.00208-.17463,0-.35584-.00849-.53778-.00849-.246-.01214-.49213-.01074-.82911-.02734.52625.75409,1.00428,1.44555,1.48926,2.13214.41565.58844.842,1.16937,1.2572,1.75812.08673.12292.15.22357.33631.22284,2.17584-.00837,4.35168-.00537,6.62359-.00537-.35516-.47962-.66479-.89795-.97454-1.31623-.62165-.83923-1.24573-1.67669-1.8628-2.51929a.52471.52471,0,0,0-.47021-.25915c-1.20764.01453-2.41553.01221-3.62329.01575C786.22943,465.60358,785.99,465.60852,785.75452,465.60852Z" transform="translate(-581.59369 -292.98181)"/><path class="cls-3" d="M751.7475,462.073c-.42084-.63916-.84412-1.27667-1.26056-1.9187a.38531.38531,0,0,0-.35346-.21167c-2.60754.00409-5.215.00287-7.88714.00287.29638.48046.56213.9143.83075,1.34631.52856.85,1.06225,1.6969,1.58526,2.55029a.46246.46246,0,0,0,.44361.27875c1.5639-.01593,3.12787-.01489,4.69183-.01935l.2785-.00128.34888-.00165h2.6872c-.353-.52264-.6814-1.00885-1.00977-1.495Q751.92507,462.33829,751.7475,462.073Z" transform="translate(-581.59369 -292.98181)"/><path class="cls-3" d="M748.12384,469.3988c.10461.1695.19348.296.4325.29285,1.29681-.017,2.59393-.01453,3.89093-.0188l1.25585.0011h3.11927c-.55573-.82312-1.08167-1.60229-1.60773-2.38141-.32037-.4892-.64319-.97687-.95984-1.46844a.44992.44992,0,0,0-.43481-.23328c-.45392.01868-.90863.01776-1.363.02478-1.06378-.04279-2.12762-.03613-3.19153-.0072l-.4425.01221h-2.97223c-.03449.1336.06836.2293.13177.33166C746.69507,467.10187,747.41345,468.24786,748.12384,469.3988Z" transform="translate(-581.59369 -292.98181)"/><path class="cls-3" d="M779.7403,459.97876c.79644,1.13947,1.55145,2.26727,2.38427,3.34094a.9075.9075,0,0,0,.262.35016.64015.64015,0,0,0,.20971.34137c.28717.22754.61951.06671.92878.0979a6.8963,6.8963,0,0,0,.92181-.02307l.34241.00543.71643.0119h3.77282c-.66656-.90289-1.29119-1.74975-1.91674-2.59588-.32355-.43762-.6543-.87012-.97058-1.31293a.51292.51292,0,0,0-.4665-.25293c-2.00384.0097-4.00775.00568-6.01165.00671A1.33548,1.33548,0,0,0,779.7403,459.97876Z" transform="translate(-581.59369 -292.98181)"/><path class="cls-3" d="M759.44214,459.94061c-2.38733.00879-4.77466.0055-7.16205.00666a1.25891,1.25891,0,0,0-.17316.03253c.48157.71539.94556,1.40448,1.40949,2.09356l.25836.35462c.32507.50543.65393,1.00848.97247,1.51806a.32711.32711,0,0,0,.3241.171c.36749-.01178.73541-.01166,1.10321-.0163q.27-.00293.54-.0058h5.85175c-.34626-.51239-.67505-1.00568-1.01075-1.4942-.54944-.79974-1.10705-1.59387-1.65246-2.3963A.49973.49973,0,0,0,759.44214,459.94061Z" transform="translate(-581.59369 -292.98181)"/><path class="cls-3" d="M763.54462,465.60675a.06925.06925,0,0,0-.11823-.00354l-.14349.00092q-2.099-.07342-4.19812-.00055-.37977-.00129-.75958-.00244h-.00007a1.38561,1.38561,0,0,0-.645.02618l-.1452-.03162a.084.084,0,0,0-.13678.005l-1.2.00091a.08225.08225,0,0,0-.12842-.00085.06242.06242,0,0,0-.07092.00629c-.2226.06457-.06043.12548.00177.18737q.70623,1.06376,1.41241,2.12763.17661.26972.35315.53943a.40435.40435,0,0,0,.01227.04248,1.93732,1.93732,0,0,0,2.21631,1.20758c2.10309-.09827,4.21405-.02893,6.33606-.02893.03278-.21167-.13831-.3161-.22894-.45q-1.14945-1.69867-2.31415-3.38684C763.72369,465.75275,763.67871,465.632,763.54462,465.60675Z" transform="translate(-581.59369 -292.98181)"/><g id="Text"><path class="cls-4" d="M702.26074,658.11133h3.83057a3.2882,3.2882,0,0,1,3.6333,3.63281v13.30859c0,8.6084-4.02783,11.21485-17.17822,11.21485-17.415,0-26.02344-10.10938-26.02344-26.37891,0-20.45605,13.58447-30.36816,37.39648-24.918a3.77822,3.77822,0,0,1,3.19873,4.06739v2.4082c0,2.52734-1.54,3.67285-4.14648,3.19922-18.71777-3.39649-25.03613,1.46094-25.03613,15.24316,0,10.583,4.02783,16.22949,13.584,16.22949,6.00293,0,7.1084-.67089,7.1084-3.791v-10.583A3.28805,3.28805,0,0,1,702.26074,658.11133Z" transform="translate(-581.59369 -292.98181)"/><path class="cls-4" d="M756.9165,685.55664h-5.21289a4.37042,4.37042,0,0,1-4.26465-2.60644l-9.59619-18.52051h-7.34521v17.49414a3.28805,3.28805,0,0,1-3.63281,3.63281h-3.87012a3.2882,3.2882,0,0,1-3.6333-3.63281V645.55371c0-8.21387,3.752-11.334,12.24219-11.334h6.55517c13.97949,0,22.272,3.47558,22.272,15.36132,0,8.13575-3.86962,12.20313-11.373,13.9004l10.34668,17.73144C760.86523,683.74023,759.79883,685.55664,756.9165,685.55664Zm-17.53369-29.77539c7.54248,0,9.91211-2.05371,9.91211-6.27832,0-4.22559-2.36963-6.2002-9.91211-6.2002h-5.647c-2.72461,0-3.23828,1.42188-3.23828,3.27735v9.20117Z" transform="translate(-581.59369 -292.98181)"/><path class="cls-4" d="M770.18652,674.22266V645.55371c0-8.21387,3.75147-11.334,12.2417-11.334H803.792a3.28863,3.28863,0,0,1,3.6333,3.63281v2.21191a3.2882,3.2882,0,0,1-3.6333,3.63282H785.15283c-3.27783,0-3.83056,1.26367-3.83056,3.27832v8.05566h18.63916a3.2882,3.2882,0,0,1,3.6333,3.63281v2.01367a3.28892,3.28892,0,0,1-3.6333,3.63379H781.32227v8.49024c0,2.01367.55273,3.27734,3.83056,3.27734h20.061a3.28806,3.28806,0,0,1,3.63281,3.63281v2.21192a3.28805,3.28805,0,0,1-3.63281,3.63281H782.42822C773.938,685.55664,770.18652,682.43652,770.18652,674.22266Z" transform="translate(-581.59369 -292.98181)"/><path class="cls-4" d="M817.457,674.22266V645.55371c0-8.21387,3.75195-11.334,12.24219-11.334H851.063a3.28863,3.28863,0,0,1,3.6333,3.63281v2.21191a3.2882,3.2882,0,0,1-3.6333,3.63282H832.42383c-3.27735,0-3.83057,1.26367-3.83057,3.27832v8.05566h18.63916a3.28821,3.28821,0,0,1,3.6333,3.63281v2.01367a3.28893,3.28893,0,0,1-3.6333,3.63379H828.59326v8.49024c0,2.01367.55322,3.27734,3.83057,3.27734h20.061a3.28806,3.28806,0,0,1,3.63282,3.63281v2.21192a3.28806,3.28806,0,0,1-3.63282,3.63281H829.69922C821.209,685.55664,817.457,682.43652,817.457,674.22266Z" transform="translate(-581.59369 -292.98181)"/><path class="cls-4" d="M864.72852,681.92383v-37.792c0-7.8584,2.48779-9.91211,9.20068-9.91211,4.81787,0,7.85889,1.0664,11.4126,8.7666L898.01807,671.459c.395.90821.71093,1.18457,1.18457,1.18457.67138,0,.86914-.47363.86914-1.42187l-.15821-33.36914a3.28864,3.28864,0,0,1,3.63331-3.63281h3.55371a3.28863,3.28863,0,0,1,3.6333,3.63281v37.792c0,7.8584-2.4878,9.91211-9.20118,9.91211-4.81787,0-7.85839-1.06641-11.41259-8.7666l-12.67627-28.47266c-.395-.9082-.71045-1.18457-1.18457-1.18457-.67139,0-.86866.47461-.86866,1.42188l.15772,33.36914a3.28805,3.28805,0,0,1-3.63281,3.63281h-3.5542A3.28784,3.28784,0,0,1,864.72852,681.92383Z" transform="translate(-581.59369 -292.98181)"/><path class="cls-4" d="M937.74658,680.541v-1.5c0-2.52735,1.50049-3.67286,4.02783-3.19922,10.06983,1.85644,21.48243,1.85644,21.48243-4.58008,0-2.37012-1.42188-4.18652-6.9502-6.4375l-4.936-2.13184c-9.79346-4.22558-13.30813-8.64843-13.30813-15.16406,0-13.03223,14.21633-16.30957,30.249-12.59766a3.7402,3.7402,0,0,1,3.15918,4.02832v1.61914c0,2.48731-1.501,3.71192-4.02832,3.27735-9.47754-1.5791-18.2832-1.69824-18.2832,3.47558,0,2.29,1.50049,4.14551,6.51562,6.16016l4.58106,1.93457c9.91211,4.18652,14.13672,8.45117,14.13672,15.83594,0,14.61035-17.17774,17.2959-33.52637,13.30762A3.734,3.734,0,0,1,937.74658,680.541Z" transform="translate(-581.59369 -292.98181)"/><path class="cls-4" d="M1028.77148,637.85254v26.73535c0,14.65039-6.16113,21.67969-22.98339,21.67969-16.82325,0-22.9834-7.0293-22.9834-21.67969V637.85254a3.2887,3.2887,0,0,1,3.63279-3.63281h3.87014a3.289,3.289,0,0,1,3.63379,3.63281v27.32715c0,7.62207,3.51464,11.05761,11.84668,11.05761,8.41113,0,11.84668-3.43554,11.84668-11.05761V637.85254a3.2887,3.2887,0,0,1,3.63281-3.63281h3.87012A3.289,3.289,0,0,1,1028.77148,637.85254Z" transform="translate(-581.59369 -292.98181)"/><path class="cls-4" d="M1039.83008,681.92383v-37.792c0-7.8584,2.48828-9.91211,9.20117-9.91211,4.81836,0,7.8584,1.0664,11.41309,8.7666l12.67578,28.47265c.39453.90821.71093,1.18457,1.18457,1.18457.67187,0,.86914-.47363.86914-1.42187l-.15821-33.36914a3.28828,3.28828,0,0,1,3.63282-3.63281h3.55468a3.28828,3.28828,0,0,1,3.63282,3.63281v37.792c0,7.8584-2.48828,9.91211-9.20117,9.91211-4.81739,0-7.8584-1.06641-11.41211-8.7666l-12.67676-28.47266c-.39453-.9082-.71094-1.18457-1.18457-1.18457-.6709,0-.86914.47461-.86914,1.42188l.1582,33.36914a3.28784,3.28784,0,0,1-3.63281,3.63281h-3.55469A3.28827,3.28827,0,0,1,1039.83008,681.92383Z" transform="translate(-581.59369 -292.98181)"/><path class="cls-4" d="M1134.44824,685.55664h-5.21191a4.37131,4.37131,0,0,1-4.26563-2.60644l-9.5957-18.52051h-7.34473v17.49414a3.28856,3.28856,0,0,1-3.63379,3.63281h-3.86914a3.28856,3.28856,0,0,1-3.63379-3.63281V645.55371c0-8.21387,3.752-11.334,12.24219-11.334h6.55567c13.97851,0,22.27148,3.47558,22.27148,15.36132,0,8.13575-3.87012,12.20313-11.373,13.9004l10.34668,17.73144C1138.39746,683.74023,1137.33105,685.55664,1134.44824,685.55664Zm-17.5332-29.77539c7.543,0,9.91211-2.05371,9.91211-6.27832,0-4.22559-2.36914-6.2002-9.91211-6.2002h-5.64746c-2.72461,0-3.23731,1.42188-3.23731,3.27735v9.20117Z" transform="translate(-581.59369 -292.98181)"/><path class="cls-4" d="M1148.98242,681.92383V637.85254a3.2887,3.2887,0,0,1,3.63281-3.63281h3.98926a3.2887,3.2887,0,0,1,3.63281,3.63281v44.07129a3.28827,3.28827,0,0,1-3.63281,3.63281h-3.98926A3.28827,3.28827,0,0,1,1148.98242,681.92383Z" transform="translate(-581.59369 -292.98181)"/><path class="cls-4" d="M1169.95312,680.541v-1.5c0-2.52735,1.501-3.67286,4.02833-3.19922,10.07031,1.85644,21.48242,1.85644,21.48242-4.58008,0-2.37012-1.42188-4.18652-6.9502-6.4375l-4.93652-2.13184c-9.793-4.22558-13.30762-8.64843-13.30762-15.16406,0-13.03223,14.21582-16.30957,30.249-12.59766a3.7402,3.7402,0,0,1,3.15918,4.02832v1.61914c0,2.48731-1.501,3.71192-4.02832,3.27735-9.47753-1.5791-18.2832-1.69824-18.2832,3.47558,0,2.29,1.5,4.14551,6.51563,6.16016l4.58105,1.93457c9.91211,4.18652,14.13672,8.45117,14.13672,15.83594,0,14.61035-17.17773,17.2959-33.52637,13.30762A3.734,3.734,0,0,1,1169.95312,680.541Z" transform="translate(-581.59369 -292.98181)"/><path class="cls-4" d="M1215.01172,674.22266V645.55371c0-8.21387,3.752-11.334,12.24219-11.334h21.36425a3.2887,3.2887,0,0,1,3.63282,3.63281v2.21191a3.28828,3.28828,0,0,1-3.63282,3.63282h-18.63964c-3.27735,0-3.83008,1.26367-3.83008,3.27832v8.05566h18.63867a3.28784,3.28784,0,0,1,3.63281,3.63281v2.01367a3.28856,3.28856,0,0,1-3.63281,3.63379h-18.63867v8.49024c0,2.01367.55273,3.27734,3.83008,3.27734h20.06054a3.28856,3.28856,0,0,1,3.63379,3.63281v2.21192a3.28856,3.28856,0,0,1-3.63379,3.63281h-22.78515C1218.76367,685.55664,1215.01172,682.43652,1215.01172,674.22266Z" transform="translate(-581.59369 -292.98181)"/><path class="cls-4" d="M763.87939,735.63086c0,4.05469-2.95361,5.17187-8.65478,5.17187h-2.41016c-3.17383,0-4.56982-1.16113-4.56982-4.21679V725.918c0-3.05664,1.396-4.21777,4.55517-4.21777H754.813c5.36328,0,8.14062,1.08789,8.14062,4.8496a4.26111,4.26111,0,0,1-2.542,4.26075A4.58685,4.58685,0,0,1,763.87939,735.63086Zm-8.56691-6.23047c2.67434,0,3.6592-.57324,3.6592-2.32227,0-1.58691-.97022-2.1455-3.6592-2.1455h-1.73387c-1.02832,0-1.20507.4707-1.20507,1.21972v3.24805Zm4.438,5.87695c0-1.86621-.97022-2.43847-3.64453-2.43847h-3.73242v3.51172c0,.749.17675,1.21972,1.20507,1.21972H756.106C758.81006,737.57031,759.75049,737.01172,759.75049,735.27734Z" transform="translate(-581.59369 -292.98181)"/><path class="cls-4" d="M784.25342,723.05176V733c0,5.45117-2.292,8.06738-8.55176,8.06738s-8.55225-2.61621-8.55225-8.06738v-9.94824a1.22375,1.22375,0,0,1,1.352-1.35156h1.44a1.224,1.224,0,0,1,1.352,1.35156V733.2207c0,2.83594,1.30761,4.11426,4.4082,4.11426,3.12988,0,4.4082-1.27832,4.4082-4.11426V723.05176a1.22361,1.22361,0,0,1,1.35157-1.35156h1.44043A1.2236,1.2236,0,0,1,784.25342,723.05176Z" transform="translate(-581.59369 -292.98181)"/><path class="cls-4" d="M788.83057,739.45117V723.05176a1.22374,1.22374,0,0,1,1.35205-1.35156h1.48388a1.22374,1.22374,0,0,1,1.352,1.35156v16.39941a1.22374,1.22374,0,0,1-1.352,1.35156h-1.48388A1.22374,1.22374,0,0,1,788.83057,739.45117Z" transform="translate(-581.59369 -292.98181)"/><path class="cls-4" d="M797.59961,736.58594V723.05176a1.22374,1.22374,0,0,1,1.352-1.35156h1.43994a1.224,1.224,0,0,1,1.352,1.35156v12.78418c0,.69043.20557,1.23437,1.4253,1.23437H809.458a1.2236,1.2236,0,0,1,1.35156,1.35157v1.02929a1.2236,1.2236,0,0,1-1.35156,1.35156h-7.30322C798.99561,740.80273,797.59961,739.6416,797.59961,736.58594Z" transform="translate(-581.59369 -292.98181)"/><path class="cls-4" d="M813.53711,736.58594V725.918c0-3.05664,1.42529-4.21777,4.56982-4.21777H819.562c6.40625,0,9.75684,2.248,9.75684,9.55175,0,7.30274-3.35059,9.55078-9.75684,9.55078h-1.45508C814.9624,740.80273,813.53711,739.6416,813.53711,736.58594Zm11.63769-5.334c0-4.74707-1.55761-6.06933-4.74609-6.06933h-1.543c-1.01367,0-1.20459.54394-1.20459,1.39648v9.34473c0,.85254.19092,1.39648,1.20459,1.39648h1.543C823.61719,737.32031,825.1748,735.99805,825.1748,731.252Z" transform="translate(-581.59369 -292.98181)"/><path class="cls-4" d="M833.05957,739.45117V723.05176a1.22374,1.22374,0,0,1,1.352-1.35156h1.48389a1.22374,1.22374,0,0,1,1.35205,1.35156v16.39941a1.22374,1.22374,0,0,1-1.35205,1.35156h-1.48389A1.22374,1.22374,0,0,1,833.05957,739.45117Z" transform="translate(-581.59369 -292.98181)"/><path class="cls-4" d="M841.82861,739.45117v-14.0625c0-2.92383.92578-3.68847,3.42383-3.68847,1.79248,0,2.92432.39648,4.24658,3.26171l4.7168,10.59473c.147.33789.26465.44141.44092.44141.25,0,.32324-.17676.32324-.5293l-.05859-12.417a1.2236,1.2236,0,0,1,1.35156-1.35156h1.32275a1.22361,1.22361,0,0,1,1.35157,1.35156v14.0625c0,2.9248-.92579,3.68847-3.42383,3.68847-1.79248,0-2.92383-.39648-4.24658-3.26171l-4.7168-10.59473c-.147-.33789-.26416-.44141-.44092-.44141-.24951,0-.32324.17676-.32324.5293l.05908,12.417a1.22374,1.22374,0,0,1-1.352,1.35156h-1.32227A1.22375,1.22375,0,0,1,841.82861,739.45117Z" transform="translate(-581.59369 -292.98181)"/><path class="cls-4" d="M875.51514,730.58984h1.42529a1.22389,1.22389,0,0,1,1.35156,1.35254v4.95215c0,3.20313-1.49853,4.17285-6.3916,4.17285-6.48047,0-9.68359-3.76172-9.68359-9.81543,0-7.6123,5.05468-11.30078,13.91552-9.27246a1.406,1.406,0,0,1,1.18995,1.51367v.89649c0,.94043-.57325,1.36621-1.543,1.18945-6.96485-1.26367-9.31592.54395-9.31592,5.67285,0,3.9375,1.49853,6.03907,5.05469,6.03907,2.23339,0,2.645-.25,2.645-1.41114v-3.9375A1.224,1.224,0,0,1,875.51514,730.58984Z" transform="translate(-581.59369 -292.98181)"/><path class="cls-4" d="M903.55664,723.05176v1.01465a1.2236,1.2236,0,0,1-1.35156,1.35156H897.459v14.0332a1.224,1.224,0,0,1-1.352,1.35156h-1.48437a1.2236,1.2236,0,0,1-1.35156-1.35156V725.418h-4.7461a1.22374,1.22374,0,0,1-1.352-1.35156v-1.01465a1.22374,1.22374,0,0,1,1.352-1.35156h13.68018A1.2236,1.2236,0,0,1,903.55664,723.05176Z" transform="translate(-581.59369 -292.98181)"/><path class="cls-4" d="M920.24365,721.7002h1.43994a1.22361,1.22361,0,0,1,1.35157,1.35156v16.39941a1.22361,1.22361,0,0,1-1.35157,1.35156h-1.43994a1.22374,1.22374,0,0,1-1.352-1.35156v-6.56836h-8.83105v6.56836a1.224,1.224,0,0,1-1.35205,1.35156h-1.43995a1.22375,1.22375,0,0,1-1.352-1.35156V723.05176a1.22375,1.22375,0,0,1,1.352-1.35156h1.43995a1.224,1.224,0,0,1,1.35205,1.35156V729.165h8.83105v-6.11328A1.22374,1.22374,0,0,1,920.24365,721.7002Z" transform="translate(-581.59369 -292.98181)"/><path class="cls-4" d="M927.14209,736.58594V725.918c0-3.05664,1.396-4.21777,4.55518-4.21777h7.9497a1.224,1.224,0,0,1,1.352,1.35156v.82324a1.22353,1.22353,0,0,1-1.352,1.35156h-6.93554c-1.21973,0-1.4253.47071-1.4253,1.21973v2.99805h6.93555a1.22317,1.22317,0,0,1,1.35156,1.35156v.749a1.22389,1.22389,0,0,1-1.35156,1.35254h-6.93555v3.15918c0,.749.20557,1.21973,1.4253,1.21973h7.46435a1.22331,1.22331,0,0,1,1.352,1.35156v.82324a1.22374,1.22374,0,0,1-1.352,1.35156h-8.47851C928.53809,740.80273,927.14209,739.6416,927.14209,736.58594Z" transform="translate(-581.59369 -292.98181)"/><path class="cls-4" d="M967.2627,735.63086c0,4.05469-2.95313,5.17187-8.6543,5.17187h-2.41016c-3.17383,0-4.56982-1.16113-4.56982-4.21679V725.918c0-3.05664,1.396-4.21777,4.55517-4.21777h2.01319c5.36279,0,8.14013,1.08789,8.14013,4.8496a4.26043,4.26043,0,0,1-2.542,4.26075A4.58686,4.58686,0,0,1,967.2627,735.63086Zm-8.56641-6.23047c2.67383,0,3.65918-.57324,3.65918-2.32227,0-1.58691-.9707-2.1455-3.65918-2.1455H956.9624c-1.02832,0-1.20508.4707-1.20508,1.21972v3.24805Zm4.4375,5.87695c0-1.86621-.96973-2.43847-3.644-2.43847h-3.73243v3.51172c0,.749.17676,1.21972,1.20508,1.21972h2.52735C962.19336,737.57031,963.13379,737.01172,963.13379,735.27734Z" transform="translate(-581.59369 -292.98181)"/><path class="cls-4" d="M984.50684,740.80273h-1.93946a1.62684,1.62684,0,0,1-1.58691-.96972l-3.57031-6.8916h-2.7334v6.50976a1.22381,1.22381,0,0,1-1.35156,1.35156h-1.44043a1.22339,1.22339,0,0,1-1.35157-1.35156V725.918c0-3.05664,1.39551-4.21777,4.55469-4.21777h2.43945c5.20215,0,8.28809,1.293,8.28809,5.71582,0,3.02734-1.44043,4.541-4.23242,5.17285l3.84961,6.59765C985.97656,740.127,985.58008,740.80273,984.50684,740.80273Zm-6.52344-11.0791c2.80664,0,3.6875-.76465,3.6875-2.33691s-.88086-2.30664-3.6875-2.30664h-2.10156c-1.01368,0-1.20508.5293-1.20508,1.21972v3.42383Z" transform="translate(-581.59369 -292.98181)"/><path class="cls-4" d="M989.9082,739.45117V723.05176a1.22339,1.22339,0,0,1,1.35157-1.35156h1.48437a1.22338,1.22338,0,0,1,1.35156,1.35156v16.39941a1.22338,1.22338,0,0,1-1.35156,1.35156h-1.48437A1.22339,1.22339,0,0,1,989.9082,739.45117Z" transform="translate(-581.59369 -292.98181)"/><path class="cls-4" d="M1011.1377,730.58984h1.42578a1.22411,1.22411,0,0,1,1.35156,1.35254v4.95215c0,3.20313-1.499,4.17285-6.3916,4.17285-6.48047,0-9.6836-3.76172-9.6836-9.81543,0-7.6123,5.05469-11.30078,13.915-9.27246a1.406,1.406,0,0,1,1.19043,1.51367v.89649c0,.94043-.57324,1.36621-1.543,1.18945-6.96484-1.26367-9.3164.54395-9.3164,5.67285,0,3.9375,1.499,6.03907,5.05468,6.03907,2.2334,0,2.64551-.25,2.64551-1.41114v-3.9375A1.22368,1.22368,0,0,1,1011.1377,730.58984Z" transform="translate(-581.59369 -292.98181)"/><path class="cls-4" d="M1031.82129,721.7002h1.43945a1.22338,1.22338,0,0,1,1.35156,1.35156v16.39941a1.22338,1.22338,0,0,1-1.35156,1.35156h-1.43945a1.2241,1.2241,0,0,1-1.35254-1.35156v-6.56836h-8.83105v6.56836a1.22382,1.22382,0,0,1-1.35157,1.35156h-1.44043a1.22339,1.22339,0,0,1-1.35156-1.35156V723.05176a1.22339,1.22339,0,0,1,1.35156-1.35156h1.44043a1.22382,1.22382,0,0,1,1.35157,1.35156V729.165h8.83105v-6.11328A1.2241,1.2241,0,0,1,1031.82129,721.7002Z" transform="translate(-581.59369 -292.98181)"/><path class="cls-4" d="M1053.501,723.05176v1.01465a1.22339,1.22339,0,0,1-1.35157,1.35156h-4.74609v14.0332a1.22381,1.22381,0,0,1-1.35156,1.35156h-1.48438a1.22339,1.22339,0,0,1-1.35156-1.35156V725.418h-4.74609a1.2241,1.2241,0,0,1-1.35254-1.35156v-1.01465a1.2241,1.2241,0,0,1,1.35254-1.35156h13.67968A1.22339,1.22339,0,0,1,1053.501,723.05176Z" transform="translate(-581.59369 -292.98181)"/><path class="cls-4" d="M1062.91113,739.45117V725.918c0-3.05664,1.39649-4.21777,4.55567-4.21777h7.94922a1.2241,1.2241,0,0,1,1.35253,1.35156v.82324a1.22367,1.22367,0,0,1-1.35253,1.35156h-6.93555c-1.21973,0-1.42481.47071-1.42481,1.21973v3.042h7.30274a1.223,1.223,0,0,1,1.35156,1.35156v.83789a1.223,1.223,0,0,1-1.35156,1.35157h-7.30274v6.42187a1.2241,1.2241,0,0,1-1.35254,1.35156h-1.43945A1.2241,1.2241,0,0,1,1062.91113,739.45117Z" transform="translate(-581.59369 -292.98181)"/><path class="cls-4" d="M1096.77637,723.05176V733c0,5.45117-2.293,8.06738-8.55274,8.06738s-8.55175-2.61621-8.55175-8.06738v-9.94824a1.22338,1.22338,0,0,1,1.35156-1.35156h1.44043a1.22381,1.22381,0,0,1,1.35156,1.35156V733.2207c0,2.83594,1.30762,4.11426,4.4082,4.11426,3.12989,0,4.40821-1.27832,4.40821-4.11426V723.05176a1.2241,1.2241,0,0,1,1.35254-1.35156h1.43945A1.2241,1.2241,0,0,1,1096.77637,723.05176Z" transform="translate(-581.59369 -292.98181)"/><path class="cls-4" d="M1115.665,723.05176v1.01465a1.2241,1.2241,0,0,1-1.35254,1.35156h-4.74609v14.0332a1.22339,1.22339,0,0,1-1.35157,1.35156h-1.48437a1.22338,1.22338,0,0,1-1.35156-1.35156V725.418h-4.7461a1.2241,1.2241,0,0,1-1.35254-1.35156v-1.01465a1.2241,1.2241,0,0,1,1.35254-1.35156h13.67969A1.2241,1.2241,0,0,1,1115.665,723.05176Z" transform="translate(-581.59369 -292.98181)"/><path class="cls-4" d="M1135.27539,723.05176V733c0,5.45117-2.292,8.06738-8.55176,8.06738s-8.55175-2.61621-8.55175-8.06738v-9.94824a1.22338,1.22338,0,0,1,1.35156-1.35156h1.43945a1.2241,1.2241,0,0,1,1.35254,1.35156V733.2207c0,2.83594,1.30762,4.11426,4.4082,4.11426,3.12989,0,4.40821-1.27832,4.40821-4.11426V723.05176a1.22338,1.22338,0,0,1,1.35156-1.35156h1.44043A1.22338,1.22338,0,0,1,1135.27539,723.05176Z" transform="translate(-581.59369 -292.98181)"/><path class="cls-4" d="M1153.35645,740.80273H1151.417a1.62684,1.62684,0,0,1-1.58691-.96972l-3.57031-6.8916h-2.7334v6.50976a1.2241,1.2241,0,0,1-1.35254,1.35156h-1.43945a1.22339,1.22339,0,0,1-1.35157-1.35156V725.918c0-3.05664,1.39551-4.21777,4.55469-4.21777h2.43945c5.20117,0,8.28711,1.293,8.28711,5.71582,0,3.02734-1.43945,4.541-4.23144,5.17285l3.84961,6.59765C1154.82617,740.127,1154.42969,740.80273,1153.35645,740.80273Zm-6.52442-11.0791c2.80664,0,3.68848-.76465,3.68848-2.33691s-.88184-2.30664-3.68848-2.30664h-2.10058c-1.01465,0-1.20508.5293-1.20508,1.21972v3.42383Z" transform="translate(-581.59369 -292.98181)"/><path class="cls-4" d="M1158.28809,736.58594V725.918c0-3.05664,1.3955-4.21777,4.55468-4.21777h7.94922a1.2241,1.2241,0,0,1,1.35254,1.35156v.82324a1.22367,1.22367,0,0,1-1.35254,1.35156h-6.93554c-1.21973,0-1.42481.47071-1.42481,1.21973v2.99805h6.93555a1.223,1.223,0,0,1,1.35156,1.35156v.749a1.22367,1.22367,0,0,1-1.35156,1.35254h-6.93555v3.15918c0,.749.20508,1.21973,1.42481,1.21973h7.46484a1.223,1.223,0,0,1,1.35156,1.35156v.82324a1.22338,1.22338,0,0,1-1.35156,1.35156h-8.47852C1159.68359,740.80273,1158.28809,739.6416,1158.28809,736.58594Z" transform="translate(-581.59369 -292.98181)"/></g></svg>